<?xml version="1.0" encoding="UTF-8" standalone="no"?>
<!-- Created with Inkscape (http://www.inkscape.org/) -->

<svg
   width="256"
   height="256"
   viewBox="0 0 256 256"
   id="svg2"
   version="1.1"
   sodipodi:docname="3-origin-path-low-22-ring.svg"
   inkscape:version="1.2 (1:1.2.1+202207142221+cd75a1ee6d)"
   xmlns:inkscape="http://www.inkscape.org/namespaces/inkscape"
   xmlns:sodipodi="http://sodipodi.sourceforge.net/DTD/sodipodi-0.dtd"
   xmlns="http://www.w3.org/2000/svg"
   xmlns:svg="http://www.w3.org/2000/svg">
  <sodipodi:namedview
     id="namedview10"
     pagecolor="#ffffff"
     bordercolor="#000000"
     borderopacity="0.25"
     inkscape:showpageshadow="2"
     inkscape:pageopacity="0.0"
     inkscape:pagecheckerboard="0"
     inkscape:deskcolor="#d1d1d1"
     showgrid="true"
     inkscape:zoom="3"
     inkscape:cx="128.16667"
     inkscape:cy="128"
     inkscape:window-width="1920"
     inkscape:window-height="1017"
     inkscape:window-x="0"
     inkscape:window-y="0"
     inkscape:window-maximized="1"
     inkscape:current-layer="layer1">
    <inkscape:grid
       type="xygrid"
       id="grid293"
       spacingx="10"
       spacingy="10"
       empspacing="1"
       originx="0"
       originy="0" />
  </sodipodi:namedview>
  <defs
     id="defs4" />
  <g
     inkscape:groupmode="layer"
     id="layer1"
     inkscape:label="Lm">
    <path
       style="color:#000000;fill:#000000;stroke:none;stroke-width:0;stroke-dasharray:none"
       d="m 58,63 v 90 c 0,21.97292 18.027078,40 40,40 h 60 c 21.97292,0 40,-18.02708 40,-40 v -50 c 0,-16.450083 -13.54992,-30 -30,-30 -7.6848,0 -14.66681,3.036801 -20,7.865234 C 142.66681,76.036801 135.6848,73 128,73 111.54992,73 98,86.54992 98,103 v 50 h 20 v -50 c 0,-5.641288 4.35871,-10 10,-10 5.64129,0 10,4.358712 10,10 v 50 h 20 v -50 c 0,-5.641288 4.35871,-10 10,-10 5.64128,0 10,4.358715 10,10 v 50 c 0,11.16413 -8.83587,20 -20,20 H 98 C 86.835871,173 78,164.16413 78,153 V 63 Z"
       id="Lm-path"
       sodipodi:nodetypes="csssssscssccsssccssssssscc" />
  </g>
</svg>
