<?xml version="1.0" encoding="UTF-8" standalone="no"?>
<!-- Created with Inkscape (http://www.inkscape.org/) -->

<svg
   width="256"
   height="256"
   viewBox="0 0 256 256"
   id="svg2"
   version="1.1"
   sodipodi:docname="3-origin-path-low-22-simple.svg"
   inkscape:version="1.2 (1:1.2.1+202207142221+cd75a1ee6d)"
   xmlns:inkscape="http://www.inkscape.org/namespaces/inkscape"
   xmlns:sodipodi="http://sodipodi.sourceforge.net/DTD/sodipodi-0.dtd"
   xmlns="http://www.w3.org/2000/svg"
   xmlns:svg="http://www.w3.org/2000/svg">
  <sodipodi:namedview
     id="namedview10"
     pagecolor="#ffffff"
     bordercolor="#000000"
     borderopacity="0.25"
     inkscape:showpageshadow="2"
     inkscape:pageopacity="0.0"
     inkscape:pagecheckerboard="0"
     inkscape:deskcolor="#d1d1d1"
     showgrid="true"
     inkscape:zoom="3"
     inkscape:cx="128.16667"
     inkscape:cy="128"
     inkscape:window-width="1920"
     inkscape:window-height="1017"
     inkscape:window-x="0"
     inkscape:window-y="0"
     inkscape:window-maximized="1"
     inkscape:current-layer="layer1">
    <inkscape:grid
       type="xygrid"
       id="grid293"
       spacingx="10"
       spacingy="10"
       empspacing="1"
       originx="0"
       originy="0" />
  </sodipodi:namedview>
  <defs
     id="defs4" />
  <g
     inkscape:groupmode="layer"
     id="layer1"
     inkscape:label="Lm">
    <path
       style="color:#000000;fill:#000000;stroke:none;stroke-width:0;stroke-dasharray:none"
       d="m 2,11 v 162 c 0,39.55126 32.44874,72 72,72 h 108 c 39.55126,0 72,-32.44874 72,-72 V 83 C 254,53.389851 229.61014,29 200,29 186.16736,29 173.59974,34.466242 164,43.157421 154.40026,34.466242 141.83264,29 128,29 98.389856,29 74,53.389856 74,83 v 90 h 36 V 83 c 0,-10.154318 7.84568,-18 18,-18 10.15432,0 18,7.845682 18,18 v 90 h 36 V 83 c 0,-10.154318 7.84568,-18 18,-18 10.1543,0 18,7.845687 18,18 v 90 c 0,20.09543 -15.90457,36 -36,36 H 74 C 53.904568,209 38,193.09543 38,173 V 11 Z"
       id="Lm-path"
       sodipodi:nodetypes="csssssscssccsssccssssssscc" />
  </g>
</svg>
