<?xml version="1.0" encoding="UTF-8" standalone="no"?>
<!-- Created with Inkscape (http://www.inkscape.org/) -->

<svg
   width="1062"
   height="256"
   viewBox="0 0 1062 256"
   version="1.1"
   id="svg5"
   inkscape:version="1.1 (1:1.1+202105261517+ce6663b3b7)"
   sodipodi:docname="arobas-name-rev-green2.svg"
   inkscape:export-filename="/home/sebastien/brand-logo/arobas-name-rev-green2.png"
   inkscape:export-xdpi="192"
   inkscape:export-ydpi="192"
   xmlns:inkscape="http://www.inkscape.org/namespaces/inkscape"
   xmlns:sodipodi="http://sodipodi.sourceforge.net/DTD/sodipodi-0.dtd"
   xmlns="http://www.w3.org/2000/svg"
   xmlns:svg="http://www.w3.org/2000/svg">
  <sodipodi:namedview
     id="namedview7"
     pagecolor="#cccccc"
     bordercolor="#999999"
     borderopacity="1"
     inkscape:pageshadow="2"
     inkscape:pageopacity="0"
     inkscape:pagecheckerboard="0"
     inkscape:document-units="px"
     showgrid="true"
     units="px"
     width="1082px"
     scale-x="1"
     inkscape:zoom="1"
     inkscape:cx="419.5"
     inkscape:cy="221.5"
     inkscape:current-layer="layer1">
    <inkscape:grid
       type="xygrid"
       id="grid1221"
       spacingx="32"
       spacingy="32"
       empspacing="4" />
  </sodipodi:namedview>
  <defs
     id="defs2" />
  <g
     inkscape:label="Layer 1"
     inkscape:groupmode="layer"
     id="layer1">
    <g
       aria-label="linuxmint"
       id="text304824"
       style="font-size:186.667px;line-height:1.25;letter-spacing:-2px;fill:#00b894;fill-opacity:1;stroke:none">
      <path
         d="M 293.99999,166.12683 V 54.499959 h 14.93336 V 167.62017 q 0,12.88002 13.06669,13.62669 v 12.88002 q -28.00005,0 -28.00005,-28.00005 z"
         style="font-family:Oxanium;-inkscape-font-specification:Oxanium;fill:#00b894;fill-opacity:1;stroke:none"
         id="path1472" />
      <path
         d="M 340.53309,77.460001 V 59.913303 h 16.4267 v 17.546698 z m 0.74667,115.173539 V 95.566701 h 14.93336 v 97.066839 z"
         style="font-family:Oxanium;-inkscape-font-specification:Oxanium;fill:#00b894;fill-opacity:1;stroke:none"
         id="path1474" />
      <path
         d="M 384.0798,192.63354 V 95.566701 h 52.26676 q 28.00005,0 28.00005,28.000049 v 69.06679 h -14.93336 v -70.93346 q 0,-13.06669 -13.06669,-13.06669 h -37.3334 v 84.00015 z"
         style="font-family:Oxanium;-inkscape-font-specification:Oxanium;fill:#00b894;fill-opacity:1;stroke:none"
         id="path1476" />
      <path
         d="M 490.71973,164.63349 V 95.566701 h 14.93336 v 70.933459 q 0,13.06669 13.06669,13.06669 h 37.3334 V 95.566701 h 14.93336 v 97.066839 h -52.26676 q -28.00005,0 -28.00005,-28.00005 z"
         style="font-family:Oxanium;-inkscape-font-specification:Oxanium;fill:#00b894;fill-opacity:1;stroke:none"
         id="path1478" />
      <path
         d="m 589.51963,189.83354 34.34673,-46.66675 -33.04006,-44.800084 1.30667,-2.800005 h 13.81335 l 26.50672,36.773399 26.50671,-36.773399 h 13.81336 l 1.30667,2.800005 -32.85339,44.800084 34.16006,46.66675 -1.30667,2.8 h -13.81336 l -27.81338,-38.64007 -27.81339,38.64007 H 590.8263 Z"
         style="font-family:Oxanium;-inkscape-font-specification:Oxanium;fill:#00b894;fill-opacity:1;stroke:none"
         id="path1480" />
      <path
         d="M 693.91957,192.63354 V 95.566701 H 804.0531 q 28.00005,0 28.00005,28.000049 v 69.06679 h -14.93336 v -70.93346 q 0,-13.06669 -13.06669,-13.06669 h -33.60006 v 84.00015 h -14.93336 v -84.00015 h -46.66675 v 84.00015 z"
         style="font-family:Oxanium;-inkscape-font-specification:Oxanium;fill:#00b894;fill-opacity:1;stroke:none"
         id="path1482" />
      <path
         d="M 858.4265,77.460001 V 59.913303 h 16.4267 v 17.546698 z m 0.74667,115.173539 V 95.566701 h 14.93336 v 97.066839 z"
         style="font-family:Oxanium;-inkscape-font-specification:Oxanium;fill:#00b894;fill-opacity:1;stroke:none"
         id="path1484" />
      <path
         d="M 901.97322,192.63354 V 95.566701 h 52.26676 q 28.00005,0 28.00005,28.000049 v 69.06679 h -14.93336 v -70.93346 q 0,-13.06669 -13.06669,-13.06669 h -37.3334 v 84.00015 z"
         style="font-family:Oxanium;-inkscape-font-specification:Oxanium;fill:#00b894;fill-opacity:1;stroke:none"
         id="path1486" />
      <path
         d="M 1008.6131,164.63349 V 63.83331 h 14.9334 v 31.733391 h 35.4667 v 13.066689 h -35.4667 v 57.86677 q 0,13.06669 13.0667,13.06669 h 24.2667 v 7.46668 l -7.4667,5.60001 h -16.8 q -28.0001,0 -28.0001,-28.00005 z"
         style="font-family:Oxanium;-inkscape-font-specification:Oxanium;fill:#00b894;fill-opacity:1;stroke:none"
         id="path1488" />
    </g>
    <g
       id="g969"
       style="stroke:none;stroke-width:0"
       transform="scale(0.86486486)">
      <circle
         style="opacity:1;fill:#00b894;stroke:none;stroke-width:0"
         id="path867"
         cx="148"
         cy="148"
         r="148" />
      <path
         style="color:#000000;fill:#ffffff;fill-opacity:1;stroke:none;stroke-width:0;-inkscape-stroke:none"
         d="M 141,20 C 106.32454,20 78,48.324542 78,83 v 90 c 0,21.97292 18.02708,40 40,40 h 60 c 21.97292,0 40,-18.02708 40,-40 v -50 c 0,-16.45008 -13.54992,-30 -30,-30 -7.68494,0 -14.66678,3.038588 -20,7.86719 C 162.66678,96.038588 155.68494,93 148,93 c -16.45008,0 -30,13.54992 -30,30 v 50 h 20 v -50 c 0,-5.64128 4.35872,-10 10,-10 5.64128,0 10,4.35872 10,10 v 50 h 20 v -50 c 0,-5.64128 4.35872,-10 10,-10 5.64128,0 10,4.35872 10,10 v 50 c 0,11.16414 -8.83586,20 -20,20 h -60 c -11.16414,0 -20,-8.83586 -20,-20 V 83 c 0,-23.866667 19.13333,-43 43,-43 h 7 c 59.76514,0 108,48.234861 108,108 0,59.76514 -48.23486,108 -108,108 C 88.234861,256 40,207.76514 40,148 40,128.29455 45.280841,109.91176 54.478516,94.015625 L 37.166016,84 C 26.275878,102.82119 20,124.71065 20,148 20,218.57393 77.426069,276 148,276 218.57393,276 276,218.57393 276,148 276,77.426069 218.57393,20 148,20 Z"
         id="path4193"
         sodipodi:nodetypes="cssssssscssccsssccssssssssccsssccssscc" />
    </g>
  </g>
</svg>
