<?xml version="1.0" encoding="UTF-8" standalone="no"?>
<!-- Created with Inkscape (http://www.inkscape.org/) -->

<svg
   width="1062"
   height="256"
   viewBox="0 0 1062 256"
   version="1.1"
   id="svg5"
   inkscape:version="1.1 (1:1.1+202105261517+ce6663b3b7)"
   sodipodi:docname="arobas-name-rev-mono.svg"
   xmlns:inkscape="http://www.inkscape.org/namespaces/inkscape"
   xmlns:sodipodi="http://sodipodi.sourceforge.net/DTD/sodipodi-0.dtd"
   xmlns="http://www.w3.org/2000/svg"
   xmlns:svg="http://www.w3.org/2000/svg">
  <sodipodi:namedview
     id="namedview7"
     pagecolor="#cccccc"
     bordercolor="#999999"
     borderopacity="1"
     inkscape:pageshadow="2"
     inkscape:pageopacity="0"
     inkscape:pagecheckerboard="0"
     inkscape:document-units="px"
     showgrid="true"
     units="px"
     width="1082px"
     scale-x="1"
     inkscape:zoom="1"
     inkscape:cx="419.60265"
     inkscape:cy="221.24503"
     inkscape:current-layer="layer1">
    <inkscape:grid
       type="xygrid"
       id="grid1221"
       spacingx="32"
       spacingy="32"
       empspacing="4" />
  </sodipodi:namedview>
  <defs
     id="defs2" />
  <g
     inkscape:label="Layer 1"
     inkscape:groupmode="layer"
     id="layer1">
    <g
       aria-label="linuxmint"
       id="text304824"
       style="font-size:186.667px;line-height:1.25;letter-spacing:-2px;fill:#ffffff">
      <path
         d="M 293.99999,166.12683 V 54.499959 h 14.93336 V 167.62017 q 0,12.88002 13.06669,13.62669 v 12.88002 q -28.00005,0 -28.00005,-28.00005 z"
         style="font-family:Oxanium;-inkscape-font-specification:Oxanium"
         id="path1472" />
      <path
         d="M 340.53309,77.460001 V 59.913303 h 16.4267 v 17.546698 z m 0.74667,115.173539 V 95.566701 h 14.93336 v 97.066839 z"
         style="font-family:Oxanium;-inkscape-font-specification:Oxanium"
         id="path1474" />
      <path
         d="M 384.0798,192.63354 V 95.566701 h 52.26676 q 28.00005,0 28.00005,28.000049 v 69.06679 h -14.93336 v -70.93346 q 0,-13.06669 -13.06669,-13.06669 h -37.3334 v 84.00015 z"
         style="font-family:Oxanium;-inkscape-font-specification:Oxanium"
         id="path1476" />
      <path
         d="M 490.71973,164.63349 V 95.566701 h 14.93336 v 70.933459 q 0,13.06669 13.06669,13.06669 h 37.3334 V 95.566701 h 14.93336 v 97.066839 h -52.26676 q -28.00005,0 -28.00005,-28.00005 z"
         style="font-family:Oxanium;-inkscape-font-specification:Oxanium"
         id="path1478" />
      <path
         d="m 589.51963,189.83354 34.34673,-46.66675 -33.04006,-44.800084 1.30667,-2.800005 h 13.81335 l 26.50672,36.773399 26.50671,-36.773399 h 13.81336 l 1.30667,2.800005 -32.85339,44.800084 34.16006,46.66675 -1.30667,2.8 h -13.81336 l -27.81338,-38.64007 -27.81339,38.64007 H 590.8263 Z"
         style="font-family:Oxanium;-inkscape-font-specification:Oxanium"
         id="path1480" />
      <path
         d="M 693.91957,192.63354 V 95.566701 H 804.0531 q 28.00005,0 28.00005,28.000049 v 69.06679 h -14.93336 v -70.93346 q 0,-13.06669 -13.06669,-13.06669 h -33.60006 v 84.00015 h -14.93336 v -84.00015 h -46.66675 v 84.00015 z"
         style="font-family:Oxanium;-inkscape-font-specification:Oxanium"
         id="path1482" />
      <path
         d="M 858.4265,77.460001 V 59.913303 h 16.4267 v 17.546698 z m 0.74667,115.173539 V 95.566701 h 14.93336 v 97.066839 z"
         style="font-family:Oxanium;-inkscape-font-specification:Oxanium"
         id="path1484" />
      <path
         d="M 901.97322,192.63354 V 95.566701 h 52.26676 q 28.00005,0 28.00005,28.000049 v 69.06679 h -14.93336 v -70.93346 q 0,-13.06669 -13.06669,-13.06669 h -37.3334 v 84.00015 z"
         style="font-family:Oxanium;-inkscape-font-specification:Oxanium"
         id="path1486" />
      <path
         d="M 1008.6131,164.63349 V 63.83331 h 14.9334 v 31.733391 h 35.4667 v 13.066689 h -35.4667 v 57.86677 q 0,13.06669 13.0667,13.06669 h 24.2667 v 7.46668 l -7.4667,5.60001 h -16.8 q -28.0001,0 -28.0001,-28.00005 z"
         style="font-family:Oxanium;-inkscape-font-specification:Oxanium"
         id="path1488" />
    </g>
    <path
       id="path867"
       style="fill:#ffffff;fill-opacity:1;stroke:none;stroke-width:0"
       d="M 128,5e-7 A 128,128 0 0 0 5e-7,128 128,128 0 0 0 128,256 128,128 0 0 0 256,128 128,128 0 0 0 128,5e-7 Z M 121.94595,17.297297 H 128 c 61.03691,0 110.7027,49.665792 110.7027,110.702703 0,61.03691 -49.66579,110.7027 -110.7027,110.7027 -61.036909,0 -110.702699,-49.66579 -110.702699,-110.7027 0,-20.14214 5.42779,-39.073572 14.846279,-55.351352 l 14.97297,8.66216 C 39.16181,95.058818 34.59459,110.95745 34.59459,128 c 0,51.68877 41.71664,93.4054 93.40541,93.4054 51.68877,0 93.4054,-41.71663 93.4054,-93.4054 0,-51.688772 -41.71663,-93.405412 -93.4054,-93.405412 h -6.05405 c -20.64145,0 -37.18919,16.54776 -37.18919,37.18919 v 77.837842 c 0,9.65547 7.64182,17.2973 17.29729,17.2973 h 51.89189 c 9.65548,0 17.2973,-7.64183 17.2973,-17.2973 v -43.24324 c 0,-4.87895 -3.7697,-8.648652 -8.64865,-8.648652 -4.87894,0 -8.64865,3.769702 -8.64865,8.648652 v 43.24324 h -17.29729 v -43.24324 c 0,-4.87895 -3.76971,-8.648652 -8.64865,-8.648652 -4.87895,0 -8.64865,3.769702 -8.64865,8.648652 v 43.24324 h -17.2973 v -43.24324 c 0,-14.227102 11.71885,-25.945952 25.94595,-25.945952 6.64643,0 12.68478,2.62797 17.2973,6.80406 4.61251,-4.17609 10.65086,-6.80406 17.29729,-6.80406 14.2271,0 25.94595,11.71885 25.94595,25.945952 v 43.24324 c 0,19.00361 -15.59099,34.5946 -34.5946,34.5946 h -51.89189 c -19.003599,0 -34.594589,-15.59099 -34.594589,-34.5946 V 71.783778 c 0,-29.98958 24.4969,-54.486481 54.486489,-54.486481 z" />
  </g>
</svg>
