<?xml version="1.0" encoding="UTF-8"?>
<!-- Created with Inkscape (http://www.inkscape.org/) -->
<svg width="96" height="96" version="1.1" viewBox="0 0 25.4 25.4" xmlns="http://www.w3.org/2000/svg" xmlns:cc="http://creativecommons.org/ns#" xmlns:dc="http://purl.org/dc/elements/1.1/" xmlns:rdf="http://www.w3.org/1999/02/22-rdf-syntax-ns#">
 <metadata>
  <rdf:RDF>
   <cc:Work rdf:about="">
    <dc:format>image/svg+xml</dc:format>
    <dc:type rdf:resource="http://purl.org/dc/dcmitype/StillImage"/>
    <cc:license rdf:resource="http://creativecommons.org/licenses/by-sa/4.0/"/>
   </cc:Work>
   <cc:License rdf:about="http://creativecommons.org/licenses/by-sa/4.0/">
    <cc:permits rdf:resource="http://creativecommons.org/ns#Reproduction"/>
    <cc:permits rdf:resource="http://creativecommons.org/ns#Distribution"/>
    <cc:requires rdf:resource="http://creativecommons.org/ns#Notice"/>
    <cc:requires rdf:resource="http://creativecommons.org/ns#Attribution"/>
    <cc:permits rdf:resource="http://creativecommons.org/ns#DerivativeWorks"/>
    <cc:requires rdf:resource="http://creativecommons.org/ns#ShareAlike"/>
   </cc:License>
  </rdf:RDF>
 </metadata>
 <g transform="translate(0 -271.6)">
  <g transform="matrix(.27273 0 0 .27273 -6.1234e-8 216)">
   <path d="m93.133 250.43c-2e-6 12.86 0 46.567 0 46.567l-93.133-93.133s35.294-1e-5 46.567-1e-5c25.718 0 46.567 20.849 46.567 46.567z" fill="#4caf50"/>
   <path d="m2.2453e-7 250.43c2e-6 -12.86 0-46.567 0-46.567l93.133 93.133s-35.294 1e-5 -46.567 1e-5c-25.718 0-46.567-20.849-46.567-46.567z" fill="#388e3c"/>
  </g>
  <path d="m4.6182 276.8v10.391c0 2.5369 2.0813 4.6182 4.6182 4.6182h6.9273c2.5369 0 4.6182-2.0813 4.6182-4.6182v-5.7727c0-1.8992-1.5644-3.4636-3.4636-3.4636-0.88726 0-1.6933 0.35071-2.3091 0.90819-0.61574-0.55748-1.4218-0.90819-2.3091-0.90819-1.8992 0-3.4636 1.5644-3.4636 3.4636v5.7727h2.3091v-5.7727c0-0.65132 0.50323-1.1545 1.1545-1.1545s1.1545 0.50322 1.1545 1.1545v5.7727h2.3091v-5.7727c0-0.65132 0.50323-1.1545 1.1545-1.1545s1.1545 0.50322 1.1545 1.1545v5.7727c0 1.289-1.0201 2.3091-2.3091 2.3091h-6.9273c-1.289 0-2.3091-1.0201-2.3091-2.3091v-10.391z" color="#000000" color-rendering="auto" dominant-baseline="auto" fill="#fafafa" image-rendering="auto" shape-rendering="auto" solid-color="#000000" style="font-feature-settings:normal;font-variant-alternates:normal;font-variant-caps:normal;font-variant-ligatures:normal;font-variant-numeric:normal;font-variant-position:normal;isolation:auto;mix-blend-mode:normal;shape-padding:0;text-decoration-color:#000000;text-decoration-line:none;text-decoration-style:solid;text-indent:0;text-orientation:mixed;text-transform:none;white-space:normal"/>
 </g>
</svg>
