<?xml version="1.0" encoding="UTF-8"?>
<!-- Created with Inkscape (http://www.inkscape.org/) -->
<svg width="96" height="96" version="1.1" viewBox="0 0 25.4 25.4" xmlns="http://www.w3.org/2000/svg" xmlns:cc="http://creativecommons.org/ns#" xmlns:dc="http://purl.org/dc/elements/1.1/" xmlns:rdf="http://www.w3.org/1999/02/22-rdf-syntax-ns#">
 <defs>
  <clipPath id="clipPath2403">
   <rect y="271.6" width="25.4" height="25.4" fill="#000000" stroke-width=".26458"/>
  </clipPath>
 </defs>
 <metadata>
  <rdf:RDF>
   <cc:Work rdf:about="">
    <dc:format>image/svg+xml</dc:format>
    <dc:type rdf:resource="http://purl.org/dc/dcmitype/StillImage"/>
   </cc:Work>
  </rdf:RDF>
 </metadata>
 <g transform="translate(0 -271.6)">
  <g transform="matrix(.27273 0 0 .27273 -6.1234e-8 216)" fill="#000000">
   <path d="m93.133 250.43c-2e-6 12.86 0 46.567 0 46.567l-93.133-93.133s35.294-1e-5 46.567-1e-5c25.718 0 46.567 20.849 46.567 46.567z"/>
   <path d="m2.2453e-7 250.43c2e-6 -12.86 0-46.567 0-46.567l93.133 93.133s-35.294 1e-5 -46.567 1e-5c-25.718 0-46.567-20.849-46.567-46.567z"/>
  </g>
  <path d="m0.09375 271.51-0.1875 0.1875 25.4 25.4 0.1875-0.1875z" clip-path="url(#clipPath2403)" color="#000000" fill="#000000" style="-inkscape-stroke:none"/>
  <path transform="translate(0)" d="m4.6182 276.8v10.391c0 2.5369 2.0813 4.6182 4.6182 4.6182h6.9273c2.5369 0 4.6182-2.0813 4.6182-4.6182v-5.7727c0-1.8992-1.5644-3.4636-3.4636-3.4636-0.88726 0-1.6933 0.35071-2.3091 0.90819-0.61574-0.55748-1.4218-0.90819-2.3091-0.90819-1.8992 0-3.4636 1.5644-3.4636 3.4636v5.7727h2.3091v-5.7727c0-0.65132 0.50323-1.1545 1.1545-1.1545s1.1545 0.50322 1.1545 1.1545v5.7727h2.3091v-5.7727c0-0.65132 0.50323-1.1545 1.1545-1.1545s1.1545 0.50322 1.1545 1.1545v5.7727c0 1.289-1.0201 2.3091-2.3091 2.3091h-6.9273c-1.289 0-2.3091-1.0201-2.3091-2.3091v-10.391z" color="#000000" color-rendering="auto" dominant-baseline="auto" fill="#ffffff" image-rendering="auto" shape-rendering="auto" solid-color="#000000" style="font-feature-settings:normal;font-variant-alternates:normal;font-variant-caps:normal;font-variant-ligatures:normal;font-variant-numeric:normal;font-variant-position:normal;isolation:auto;mix-blend-mode:normal;shape-padding:0;text-decoration-color:#000000;text-decoration-line:none;text-decoration-style:solid;text-indent:0;text-orientation:mixed;text-transform:none;white-space:normal"/>
  <path transform="matrix(.26458 0 0 .26458 0 271.6)" d="m45 95.737c-15.07-0.9856-28.233-8.6008-36.855-21.322-3.7123-5.4773-6.1275-11.654-7.445-19.04-0.5195-2.9123-0.53811-3.7658-0.6368-29.206l-0.10167-26.206 26.207 0.099782c25.464 0.096953 26.292 0.11498 29.207 0.63594 5.5878 0.99865 8.7738 2.0127 13.5 4.2968 9.7842 4.7286 17.76 12.789 22.39 22.629 2.0633 4.3848 3.0852 7.6773 4.0347 13 0.51948 2.9122 0.5381 3.7661 0.63676 29.188l0.10162 26.188-24.082-0.037338c-13.245-0.020537-25.375-0.12195-26.957-0.22537zm21.375-20.046c2.7773-0.94181 4.9278-2.2651 7.0144-4.316 2.8975-2.8481 4.5242-6.1095 5.0903-10.206 0.34063-2.4646 0.3532-23.631 0.01548-26.044-0.34607-2.473-1.8845-5.5152-3.71-7.3365-2.5143-2.5086-5.653-3.7905-9.2681-3.7855-3.1238 0.0043-5.6126 0.81206-7.9914 2.5936l-0.84926 0.63604-0.74888-0.63014c-1.9431-1.635-4.8909-2.6037-7.9105-2.5995-2.4798 0.0034-4.042 0.36801-6.1421 1.4334-2.8899 1.4661-5.06 3.9409-6.3299 7.2188l-0.66628 1.7198-0.077453 12.312-0.077455 12.312h9.026l0.0055-11.312c0.0051-10.472 0.03992-11.388 0.46859-12.332 1.503-3.3093 6.0488-3.3093 7.5518 0 0.42868 0.94385 0.46351 1.8606 0.46859 12.332l0.00548 11.312h9v-11.383c0-12.464-0.0027-12.439 1.4774-13.685 2.0695-1.7414 5.0253-1.2361 6.3976 1.0937 0.48202 0.81834 0.5 1.2985 0.5 13.349v12.5l-0.65879 1.405c-0.92669 1.9764-2.2488 3.3317-4.1754 4.2801l-1.6553 0.81492h-30.261l-1.405-0.65879c-1.9761-0.92659-3.3316-2.2488-4.2801-4.1751l-0.81492-1.6551-0.069435-20.693-0.069433-20.693h-8.9861l5e-3 20.062c0.0029 11.766 0.10636 20.764 0.25017 21.758 0.56362 3.8979 2.2845 7.2839 5.1101 10.054 2.6527 2.6008 5.8313 4.2746 9.2256 4.858 0.70635 0.1214 8.3155 0.20172 16.909 0.17849l15.625-0.04224z" fill="#000000" stroke-width=".25"/>
 </g>
</svg>
