<?xml version="1.0" encoding="UTF-8"?>
<!-- Created with Inkscape (http://www.inkscape.org/) -->
<svg width="96" height="96" version="1.1" viewBox="0 0 25.4 25.4" xmlns="http://www.w3.org/2000/svg" xmlns:cc="http://creativecommons.org/ns#" xmlns:dc="http://purl.org/dc/elements/1.1/" xmlns:rdf="http://www.w3.org/1999/02/22-rdf-syntax-ns#" xmlns:xlink="http://www.w3.org/1999/xlink">
 <metadata>
  <rdf:RDF>
   <cc:Work rdf:about="">
    <dc:format>image/svg+xml</dc:format>
    <dc:type rdf:resource="http://purl.org/dc/dcmitype/StillImage"/>
    <cc:license rdf:resource="http://creativecommons.org/licenses/by-sa/4.0/"/>
   </cc:Work>
   <cc:License rdf:about="http://creativecommons.org/licenses/by-sa/4.0/">
    <cc:permits rdf:resource="http://creativecommons.org/ns#Reproduction"/>
    <cc:permits rdf:resource="http://creativecommons.org/ns#Distribution"/>
    <cc:requires rdf:resource="http://creativecommons.org/ns#Notice"/>
    <cc:requires rdf:resource="http://creativecommons.org/ns#Attribution"/>
    <cc:permits rdf:resource="http://creativecommons.org/ns#DerivativeWorks"/>
    <cc:requires rdf:resource="http://creativecommons.org/ns#ShareAlike"/>
   </cc:License>
  </rdf:RDF>
 </metadata>
 <g transform="translate(0 -271.6)" fill="#000000">
  <path d="m4.6182 276.8v10.391c0 2.5369 2.0813 4.6182 4.6182 4.6182h6.9273c2.5369 0 4.6182-2.0813 4.6182-4.6182v-5.7727c0-1.8992-1.5644-3.4636-3.4636-3.4636-0.88726 0-1.6933 0.35071-2.3091 0.90819-0.61574-0.55748-1.4218-0.90819-2.3091-0.90819-1.8992 0-3.4636 1.5644-3.4636 3.4636v5.7727h2.3091v-5.7727c0-0.65132 0.50323-1.1545 1.1545-1.1545s1.1545 0.50322 1.1545 1.1545v5.7727h2.3091v-5.7727c0-0.65132 0.50323-1.1545 1.1545-1.1545s1.1545 0.50322 1.1545 1.1545v5.7727c0 1.289-1.0201 2.3091-2.3091 2.3091h-6.9273c-1.289 0-2.3091-1.0201-2.3091-2.3091v-10.391z" color="#000000" color-rendering="auto" dominant-baseline="auto" image-rendering="auto" shape-rendering="auto" solid-color="#000000" style="font-feature-settings:normal;font-variant-alternates:normal;font-variant-caps:normal;font-variant-ligatures:normal;font-variant-numeric:normal;font-variant-position:normal;isolation:auto;mix-blend-mode:normal;shape-padding:0;text-decoration-color:#000000;text-decoration-line:none;text-decoration-style:solid;text-indent:0;text-orientation:mixed;text-transform:none;white-space:normal"/>
  <g transform="matrix(.25069 0 0 .25081 .64473 272.24)" stroke="#000000" stroke-width="4.2203" style="paint-order:markers fill stroke">
   <path d="m-0.54102-0.53906 0.10352 26.711c0.049349 12.72 0.079963 19.291 0.16211 23.059 0.082147 3.7675 0.22137 4.769 0.48242 6.2324 1.3276 7.4427 3.7697 13.694 7.5234 19.232 8.7027 12.84 22.018 20.546 37.236 21.541 0.86309 0.05645 4.2454 0.10367 9.1328 0.14453 4.8874 0.04086 11.232 0.07176 17.855 0.08203l24.586 0.037111-0.10547-26.689c-0.049328-12.711-0.078013-19.278-0.16016-23.043-0.082144-3.7653-0.22138-4.7671-0.48242-6.2305-0.95409-5.3487-1.9989-8.7105-4.0762-13.125-4.6796-9.9445-12.736-18.088-22.625-22.867-4.7533-2.2972-8.0158-3.3347-13.629-4.3379-1.4646-0.26175-2.4601-0.40241-6.2246-0.48438s-10.336-0.11168-23.068-0.16016zm1.0039 1.0039 25.703 0.097656c12.732 0.048476 19.307 0.078631 23.051 0.16016 3.7442 0.081526 4.6199 0.20954 6.0703 0.46875 5.5625 0.99413 8.6719 1.9829 13.371 4.2539 9.6796 4.678 17.573 12.658 22.154 22.393 2.0494 4.3551 3.0493 7.5783 3.9941 12.875 0.25844 1.4488 0.38705 2.3311 0.46875 6.0762 0.0817 3.7451 0.11278 10.315 0.16211 23.025l0.099609 25.686-23.58-0.037109c-6.6214-0.01027-12.963-0.0412-17.848-0.08203-4.8843-0.04084-8.358-0.09561-9.0762-0.14258-14.922-0.97589-27.933-8.5011-36.475-21.104-3.6709-5.4162-6.0578-11.518-7.3652-18.848-0.25845-1.4489-0.38704-2.3308-0.46875-6.0781-0.081706-3.7473-0.11276-10.321-0.16211-23.041z" color="#000000" fill="#000000" stroke="#000000" stroke-width="4.2203" style="paint-order:markers fill stroke"/>
  </g>
 </g>
</svg>
