<?xml version="1.0" encoding="UTF-8" standalone="no"?>
<!-- Created with Inkscape (http://www.inkscape.org/) -->

<svg
   width="768"
   height="1024"
   viewBox="0 0 768 1024"
   version="1.1"
   id="svg5"
   inkscape:version="1.1 (1:1.1+202105261517+ce6663b3b7)"
   sodipodi:docname="names.svg"
   xmlns:inkscape="http://www.inkscape.org/namespaces/inkscape"
   xmlns:sodipodi="http://sodipodi.sourceforge.net/DTD/sodipodi-0.dtd"
   xmlns="http://www.w3.org/2000/svg"
   xmlns:svg="http://www.w3.org/2000/svg">
  <sodipodi:namedview
     id="namedview7"
     pagecolor="#e5e5e5"
     bordercolor="#999999"
     borderopacity="1"
     inkscape:pageshadow="2"
     inkscape:pageopacity="0"
     inkscape:pagecheckerboard="0"
     inkscape:document-units="px"
     showgrid="true"
     units="px"
     width="1024px"
     inkscape:zoom="1"
     inkscape:cx="384.5"
     inkscape:cy="592.5"
     inkscape:current-layer="layer1"
     scale-x="1">
    <inkscape:grid
       type="xygrid"
       id="grid91"
       spacingx="16"
       spacingy="18"
       empspacing="8"
       color="#0000ff"
       opacity="0.05098039"
       empcolor="#0000ff"
       empopacity="0.10196078" />
  </sodipodi:namedview>
  <defs
     id="defs2" />
  <g
     inkscape:label="Layer 1"
     inkscape:groupmode="layer"
     id="layer1">
    <text
       xml:space="preserve"
       style="font-size:24px;line-height:144px;font-family:sans-serif;text-align:end;text-anchor:end;fill:#808080;fill-opacity:1;stroke:none;stroke-width:0;stroke-miterlimit:4;stroke-dasharray:none"
       x="240.00035"
       y="233.23473"
       id="text23261"><tspan
         sodipodi:role="line"
         id="tspan23259"
         style="fill:#808080;fill-opacity:1;stroke:none;stroke-width:0;stroke-miterlimit:4;stroke-dasharray:none;stroke-opacity:1"
         x="240.00035"
         y="233.23473">Simple</tspan><tspan
         sodipodi:role="line"
         style="fill:#808080;fill-opacity:1;stroke:none;stroke-width:0;stroke-miterlimit:4;stroke-dasharray:none;stroke-opacity:1"
         x="240.00035"
         y="377.23471"
         id="tspan23263">Ring</tspan><tspan
         sodipodi:role="line"
         style="fill:#808080;fill-opacity:1;stroke:none;stroke-width:0;stroke-miterlimit:4;stroke-dasharray:none;stroke-opacity:1"
         x="240.00035"
         y="521.23468"
         id="tspan23265">Badge</tspan><tspan
         sodipodi:role="line"
         style="fill:#808080;fill-opacity:1;stroke:none;stroke-width:0;stroke-miterlimit:4;stroke-dasharray:none;stroke-opacity:1"
         x="240.00035"
         y="665.23468"
         id="tspan23267">High badge</tspan><tspan
         sodipodi:role="line"
         style="fill:#808080;fill-opacity:1;stroke:none;stroke-width:0;stroke-miterlimit:4;stroke-dasharray:none;stroke-opacity:1"
         x="240.00035"
         y="809.23462"
         id="tspan23533">Leaf</tspan><tspan
         sodipodi:role="line"
         style="fill:#808080;fill-opacity:1;stroke:none;stroke-width:0;stroke-miterlimit:4;stroke-dasharray:none;stroke-opacity:1"
         x="240.00037"
         y="953.23462"
         id="tspan23535">Leaf badge</tspan></text>
    <text
       xml:space="preserve"
       style="font-size:23.9995px;line-height:1.25;font-family:sans-serif;text-align:center;text-anchor:middle;fill:#808080;fill-opacity:1;stroke:none;stroke-width:0;stroke-miterlimit:4;stroke-dasharray:none"
       x="383.99826"
       y="104.836"
       id="text45348"><tspan
         sodipodi:role="line"
         id="tspan45346"
         style="fill:#808080;fill-opacity:1;stroke:none;stroke-width:0;stroke-miterlimit:4;stroke-dasharray:none;stroke-opacity:1"
         x="383.99826"
         y="104.836">1 color (mono)</tspan></text>
    <text
       xml:space="preserve"
       style="font-size:23.9995px;line-height:1.25;font-family:sans-serif;text-align:center;text-anchor:middle;fill:#808080;fill-opacity:1;stroke:none;stroke-width:0;stroke-miterlimit:4;stroke-dasharray:none"
       x="639.99255"
       y="104.836"
       id="text50832"><tspan
         sodipodi:role="line"
         id="tspan50830"
         style="fill:#808080;fill-opacity:1;stroke:none;stroke-width:0;stroke-miterlimit:4;stroke-dasharray:none;stroke-opacity:1"
         x="639.99255"
         y="104.836">2 colors (color)</tspan></text>
    <path
       style="color:#000000;fill:#505050;fill-opacity:1;stroke:none;stroke-width:0.264583;-inkscape-stroke:none"
       d="m 320.99998,171.00036 v 80.99999 c 0,19.77564 16.22437,35.99999 36,35.99999 h 54.00001 c 19.77562,0 36,-16.22435 36,-35.99999 v -45 c 0,-14.80507 -12.19495,-26.99999 -27,-26.99999 -6.91646,0 -13.20011,2.73386 -18,7.0796 -4.79992,-4.34574 -11.08357,-7.0796 -18,-7.0796 -14.80509,0 -27.00001,12.19492 -27.00001,26.99999 v 45 h 17.99999 v -45 c 0,-5.07715 3.92287,-9 9.00002,-9 5.07712,0 9,3.92285 9,9 v 45 h 18 v -45 c 0,-5.07715 3.92285,-9 9,-9 5.07711,0 9,3.92285 9,9 v 45 c 0,10.04772 -7.95228,17.99999 -18,17.99999 h -54.00001 c -10.04773,0 -18,-7.95227 -18,-17.99999 v -80.99999 z"
       id="path4193"
       sodipodi:nodetypes="csssssscssccsssccssssssscc" />
    <g
       id="layer3-6"
       inkscape:label="Layer 1"
       transform="matrix(0.49999994,0,0,0.49999994,534.99996,403.00035)"
       style="stroke-width:0.264582">
      <circle
         style="fill:#86be43;stroke:none;stroke-width:0;stroke-miterlimit:4;stroke-dasharray:none"
         id="path40"
         cx="210"
         cy="218"
         r="128" />
      <path
         style="color:#000000;fill:#505050;stroke-width:0.3175;-inkscape-stroke:none"
         d="m 126.00001,140.00001 v 108 c 0,26.3675 21.63249,48 48,48 h 72 c 26.3675,0 48,-21.6325 48,-48 v -60 c 0,-19.7401 -16.25991,-36 -36,-36 -9.22193,0 -17.60014,3.64514 -24,9.43946 -6.39986,-5.79432 -14.77808,-9.43946 -24,-9.43946 -19.7401,0 -36,16.2599 -36,36 v 60 h 24 v -60 c 0,-6.76954 5.23046,-12 12,-12 6.76953,0 12,5.23046 12,12 v 60 h 24 v -60 c 0,-6.76954 5.23046,-12 12,-12 6.76953,0 12,5.23046 12,12 v 60 c 0,13.39696 -10.60304,24 -24,24 h -72 c -13.39697,0 -24,-10.60304 -24,-24 v -108 z"
         id="path4193-7"
         sodipodi:nodetypes="csssssscssccsssccssssssscc" />
    </g>
    <g
       id="g987"
       transform="matrix(1.2077617,0,0,1.2077617,630.79502,422.07811)"
       style="stroke-width:0.0992187">
      <g
         transform="matrix(0.54054181,0,0,0.54054181,-308.35691,3.6048501)"
         id="g4824-3-4-8"
         style="stroke-width:0.0992187">
        <g
           id="g5159"
           style="stroke-width:0.0992187">
          <path
             style="display:inline;opacity:1;fill:#87cf3e;fill-opacity:1;fill-rule:evenodd;stroke-width:0.111832"
             d="m 671.90956,642.97352 c 0,-25.20809 0,-84.67388 0,-84.67388 0,-28.28854 -24.808,-51.21991 -55.41715,-51.21991 h -31.76933 v -0.0683 L 498.79913,506.636 v 30.8947 c 0,0 7.01578,0 13.18985,0 9.20682,0 10.8333,6.35563 10.8333,15.15255 l 0.0683,54.61836 c 0,28.28856 24.8081,51.21988 55.38309,51.21988 h 75.48956 c 9.67782,0 18.14635,-6.12887 18.14635,-15.548 z"
             id="path2576-0-3-7-4-8"
             sodipodi:nodetypes="cccccccsccccc"
             inkscape:connector-curvature="0" />
          <path
             inkscape:connector-curvature="0"
             sodipodi:nodetypes="ccccccccccccccccccccsccccc"
             d="m 577.77171,670.2471 c -36.45888,0 -68.09808,-27.63927 -68.09808,-64.06549 l -0.0327,-44.22927 V 550.67389 H 486.5263 v -56.19662 l 97.47492,0.45904 30.49168,0.0656 c 36.49165,0 68.09808,27.60638 68.09808,64.0653 V 670.24709 H 577.77177 v 0 0 z m 89.96674,-29.82397 c 0,-24.22031 0,-81.35591 0,-81.35591 0,-27.18004 -23.83588,-49.21283 -53.2456,-49.21283 h -30.52444 v -0.0656 l -82.55696,-0.36074 v 26.39336 c 0,0 3.31589,0 9.24802,0 6.27863,0 13.83375,5.9003 13.83375,14.55879 l 0.0656,55.76887 c 0,27.18005 23.83599,49.21281 53.21289,49.21281 h 72.53146 c 9.29857,0 17.43527,-5.88872 17.43527,-14.93876 z"
             style="display:inline;overflow:visible;visibility:visible;fill:#505050;fill-opacity:1;fill-rule:evenodd;stroke:none;stroke-width:0.111832;marker:none;enable-background:accumulate"
             id="path4210-8-6-5-7-3" />
        </g>
      </g>
      <g
         style="fill:#505050;fill-opacity:1;stroke-width:0.0992187"
         id="layer3-2-5-2-2"
         inkscape:label="Layer 1"
         transform="matrix(0.27212591,0,0,0.27212591,-37.922389,261.72722)">
        <path
           style="color:#000000;font-style:normal;font-variant:normal;font-weight:normal;font-stretch:normal;font-size:medium;line-height:normal;font-family:sans-serif;font-variant-ligatures:normal;font-variant-position:normal;font-variant-caps:normal;font-variant-numeric:normal;font-variant-alternates:normal;font-feature-settings:normal;text-indent:0;text-align:start;text-decoration:none;text-decoration-line:none;text-decoration-style:solid;text-decoration-color:#000000;letter-spacing:normal;word-spacing:normal;text-transform:none;writing-mode:lr-tb;direction:ltr;text-orientation:mixed;dominant-baseline:auto;baseline-shift:baseline;text-anchor:start;white-space:normal;shape-padding:0;clip-rule:nonzero;display:inline;overflow:visible;visibility:visible;opacity:1;isolation:auto;mix-blend-mode:normal;color-interpolation:sRGB;color-interpolation-filters:linearRGB;solid-color:#000000;solid-opacity:1;vector-effect:none;fill:#505050;fill-opacity:1;fill-rule:nonzero;stroke:none;stroke-width:3.175;stroke-linecap:butt;stroke-linejoin:miter;stroke-miterlimit:4;stroke-dasharray:none;stroke-dashoffset:0;stroke-opacity:1;color-rendering:auto;image-rendering:auto;shape-rendering:auto;text-rendering:auto;enable-background:accumulate"
           d="m 80,104 v 144 c 0,35.15671 28.84329,64 64,64 h 96 c 35.15671,0 64,-28.84329 64,-64 v -80 c 0,-26.32015 -21.67985,-48 -48,-48 -12.29591,0 -23.46684,4.8602 -32,12.58594 C 215.46684,124.8602 204.29591,120 192,120 c -26.32015,0 -48,21.67985 -48,48 v 80 h 32 v -80 c 0,-9.02607 6.97393,-16 16,-16 9.02607,0 16,6.97393 16,16 v 80 h 32 v -80 c 0,-9.02607 6.97393,-16 16,-16 9.02607,0 16,6.97393 16,16 v 80 c 0,17.86263 -14.13737,32 -32,32 h -96 c -17.86263,0 -32,-14.13737 -32,-32 V 104 Z"
           id="path4193-6-9-2-91"
           inkscape:connector-curvature="0" />
      </g>
    </g>
    <g
       id="g969"
       transform="matrix(2.8853083,0,0,2.8853083,259.66869,291.64927)"
       style="stroke-width:0.0992187">
      <path
         id="rect1013-2"
         transform="scale(0.26458333)"
         d="m 414.36914,788.04883 v 48.05664 h 19.76953 V 845.75 l 0.0254,37.82422 c 0,31.15105 27.05922,54.78906 58.23828,54.78906 h 89.63672 V 843.2832 c 0,-31.17906 -27.02926,-54.78515 -58.23633,-54.78515 l -26.07617,-0.0586 z"
         style="opacity:1;fill:#87cf3e;fill-opacity:1;stroke:none;stroke-width:0.652859;stroke-miterlimit:4;stroke-dasharray:none;stroke-opacity:1"
         inkscape:connector-curvature="0" />
      <g
         id="layer3-2-3-6"
         inkscape:label="Layer 1"
         transform="matrix(0.12154991,0,0,0.12154991,111.42789,203.16749)"
         style="stroke-width:0.0992187">
        <path
           style="color:#000000;font-style:normal;font-variant:normal;font-weight:normal;font-stretch:normal;font-size:medium;line-height:normal;font-family:sans-serif;font-variant-ligatures:normal;font-variant-position:normal;font-variant-caps:normal;font-variant-numeric:normal;font-variant-alternates:normal;font-feature-settings:normal;text-indent:0;text-align:start;text-decoration:none;text-decoration-line:none;text-decoration-style:solid;text-decoration-color:#000000;letter-spacing:normal;word-spacing:normal;text-transform:none;writing-mode:lr-tb;direction:ltr;text-orientation:mixed;dominant-baseline:auto;baseline-shift:baseline;text-anchor:start;white-space:normal;shape-padding:0;clip-rule:nonzero;display:inline;overflow:visible;visibility:visible;opacity:1;isolation:auto;mix-blend-mode:normal;color-interpolation:sRGB;color-interpolation-filters:linearRGB;solid-color:#000000;solid-opacity:1;vector-effect:none;fill:#505050;fill-opacity:1;fill-rule:nonzero;stroke:none;stroke-width:3.175;stroke-linecap:butt;stroke-linejoin:miter;stroke-miterlimit:4;stroke-dasharray:none;stroke-dashoffset:0;stroke-opacity:1;color-rendering:auto;image-rendering:auto;shape-rendering:auto;text-rendering:auto;enable-background:accumulate"
           d="m 80,104 v 144 c 0,35.15671 28.84329,64 64,64 h 96 c 35.15671,0 64,-28.84329 64,-64 v -80 c 0,-26.32015 -21.67985,-48 -48,-48 -12.29591,0 -23.46684,4.8602 -32,12.58594 C 215.46684,124.8602 204.29591,120 192,120 c -26.32015,0 -48,21.67985 -48,48 v 80 h 32 v -80 c 0,-9.02607 6.97393,-16 16,-16 9.02607,0 16,6.97393 16,16 v 80 h 32 v -80 c 0,-9.02607 6.97393,-16 16,-16 9.02607,0 16,6.97393 16,16 v 80 c 0,17.86263 -14.13737,32 -32,32 h -96 c -17.86263,0 -32,-14.13737 -32,-32 V 104 Z"
           id="path4193-6-7-1"
           inkscape:connector-curvature="0" />
      </g>
    </g>
    <g
       id="g196">
      <circle
         style="fill:#505050;fill-opacity:1;stroke:none;stroke-width:0;stroke-miterlimit:4;stroke-dasharray:none"
         id="circle553-6"
         cx="639.99994"
         cy="656.00031"
         r="63.999992" />
      <path
         id="path40-0"
         style="fill:#86be43;stroke:none;stroke-width:0;stroke-miterlimit:4;stroke-dasharray:none"
         d="M 639.99999,592 A 63.999992,63.999992 0 0 0 607.5,600.9082 v 70.09179 c 0,7.25668 5.74331,13 12.99999,13 h 39 c 7.25668,0 13,-5.74332 13,-13 v -32.5 c 0,-3.66683 -2.83317,-6.49999 -6.5,-6.49999 -3.66684,0 -6.5,2.83316 -6.5,6.49999 v 32.5 h -13 v -32.5 c 0,-3.66683 -2.83317,-6.49999 -6.5,-6.49999 -3.66683,0 -6.5,2.83316 -6.5,6.49999 v 32.5 h -13 v -32.5 c 0,-10.69255 8.80745,-19.49999 19.5,-19.49999 4.99521,0 9.53341,1.97469 13,5.11328 3.46659,-3.13859 8.00479,-5.11328 13,-5.11328 10.69255,0 19.5,8.80744 19.5,19.49999 v 32.5 c 0,14.28239 -11.71761,26 -26,26 h -39 c -14.28239,0 -25.99999,-11.71761 -25.99999,-26 V 611.02441 A 63.999992,63.999992 0 0 0 576,655.99999 63.999992,63.999992 0 0 0 639.99999,719.99998 63.999992,63.999992 0 0 0 703.99998,655.99999 63.999992,63.999992 0 0 0 639.99999,592 Z" />
    </g>
    <path
       id="path40-02"
       style="fill:#505050;fill-opacity:1;stroke:none;stroke-width:0;stroke-miterlimit:4;stroke-dasharray:none"
       d="m 383.99996,448.00034 a 63.999993,63.999993 0 0 0 -63.99998,63.99998 63.999993,63.999993 0 0 0 63.99998,64.00001 63.999993,63.999993 0 0 0 64.00001,-64.00001 63.999993,63.999993 0 0 0 -64.00001,-63.99998 z m -42,24.99998 h 12 v 54 c 0,6.69849 5.30154,11.99999 12,11.99999 h 35.99999 c 6.6985,0 12,-5.3015 12,-11.99999 v -30 c 0,-3.38476 -2.6152,-6 -6,-6 -3.38475,0 -6,2.61524 -6,6 v 30 h -11.99999 v -30 c 0,-3.38476 -2.61521,-6 -6,-6 -3.38476,0 -6,2.61524 -6,6 v 30 h -12 v -30 c 0,-9.87005 8.12995,-18 18,-18 4.61098,0 8.8001,1.8226 12,4.71976 3.19993,-2.89716 7.38905,-4.71976 11.99999,-4.71976 9.87005,0 18,8.12995 18,18 v 30 c 0,13.18378 -10.81625,23.99999 -24,23.99999 h -35.99999 c -13.18375,0 -24,-10.81621 -24,-23.99999 z" />
    <path
       id="path40-7"
       style="fill:#505050;fill-opacity:1;stroke:none;stroke-width:0;stroke-miterlimit:4;stroke-dasharray:none"
       d="m 383.99999,592.00032 a 63.999993,63.999993 0 0 0 -32.5,8.90823 v 70.09178 c 0,7.25669 5.74329,12.99999 12.99999,12.99999 h 38.99999 c 7.25669,0 12.99999,-5.7433 12.99999,-12.99999 v -32.5 c 0,-3.66682 -2.83313,-6.49999 -6.49999,-6.49999 -3.66683,0 -6.5,2.83317 -6.5,6.49999 v 32.5 h -12.99998 v -32.5 c 0,-3.66682 -2.83317,-6.49999 -6.5,-6.49999 -3.66685,0 -6.50003,2.83317 -6.50003,6.49999 v 32.5 h -12.99998 v -32.5 c 0,-10.69255 8.80743,-19.49998 19.50001,-19.49998 4.99518,0 9.53341,1.97469 12.99999,5.11325 3.46658,-3.13856 8.00477,-5.11325 12.99999,-5.11325 10.69254,0 19.50001,8.80743 19.50001,19.49998 v 32.5 c 0,14.28238 -11.71759,25.99997 -26.00001,25.99997 h -38.99999 c -14.28238,0 -26.00001,-11.71759 -26.00001,-25.99997 v -59.97557 a 63.999993,63.999993 0 0 0 -18.49999,44.97557 63.999993,63.999993 0 0 0 64.00001,63.99998 63.999993,63.999993 0 0 0 63.99998,-63.99998 63.999993,63.999993 0 0 0 -63.99998,-64.00001 z" />
    <g
       id="g1068"
       style="fill:#505050;fill-opacity:1;stroke-width:0.0992187"
       transform="matrix(2.9455347,0,0,2.9455347,290.99743,223.75198)">
      <g
         style="fill:#505050;fill-opacity:1;stroke:none;stroke-width:0.0992187"
         transform="matrix(0.22163909,0,0,0.22163909,-7.7510456,130.86817)"
         id="g4676">
        <path
           inkscape:connector-curvature="0"
           sodipodi:nodetypes="ccccccccccccccccccccsccccc"
           d="m 170.64172,390.24714 c -36.45889,0 -68.09809,-27.63927 -68.09809,-64.06549 l -0.0327,-44.22927 V 270.67393 H 79.39629 v -56.19662 l 97.47493,0.45904 30.49168,0.0656 c 36.49165,0 68.09809,27.60639 68.09809,64.0653 V 390.24713 H 170.64178 v 0 0 z m 89.96675,-29.82397 c 0,-24.22032 0,-81.35591 0,-81.35591 0,-27.18003 -23.83589,-49.21283 -53.24561,-49.21283 h -30.52444 v -0.0656 L 94.28144,229.4281 v 26.39336 c 0,0 3.3159,0 9.24803,0 6.27863,0 13.83376,5.90029 13.83376,14.55878 l 0.0656,55.76887 c 0,27.18005 23.836,49.21281 53.21289,49.21281 h 72.53146 c 9.29857,0 17.43528,-5.88872 17.43528,-14.93876 z"
           style="display:inline;overflow:visible;visibility:visible;fill:#505050;fill-opacity:1;fill-rule:evenodd;stroke:none;stroke-width:0.111832;marker:none;enable-background:accumulate"
           id="path4210-8-3-3" />
      </g>
      <g
         style="fill:#505050;fill-opacity:1;stroke-width:0.0992187"
         id="layer3-2-5-2-5"
         inkscape:label="Layer 1"
         transform="matrix(0.11356117,0,0,0.11356117,12.684076,174.29676)">
        <path
           style="color:#000000;font-style:normal;font-variant:normal;font-weight:normal;font-stretch:normal;font-size:medium;line-height:normal;font-family:sans-serif;font-variant-ligatures:normal;font-variant-position:normal;font-variant-caps:normal;font-variant-numeric:normal;font-variant-alternates:normal;font-feature-settings:normal;text-indent:0;text-align:start;text-decoration:none;text-decoration-line:none;text-decoration-style:solid;text-decoration-color:#000000;letter-spacing:normal;word-spacing:normal;text-transform:none;writing-mode:lr-tb;direction:ltr;text-orientation:mixed;dominant-baseline:auto;baseline-shift:baseline;text-anchor:start;white-space:normal;shape-padding:0;clip-rule:nonzero;display:inline;overflow:visible;visibility:visible;opacity:1;isolation:auto;mix-blend-mode:normal;color-interpolation:sRGB;color-interpolation-filters:linearRGB;solid-color:#000000;solid-opacity:1;vector-effect:none;fill:#505050;fill-opacity:1;fill-rule:nonzero;stroke:none;stroke-width:3.175;stroke-linecap:butt;stroke-linejoin:miter;stroke-miterlimit:4;stroke-dasharray:none;stroke-dashoffset:0;stroke-opacity:1;color-rendering:auto;image-rendering:auto;shape-rendering:auto;text-rendering:auto;enable-background:accumulate"
           d="m 80,104 v 144 c 0,35.15671 28.84329,64 64,64 h 96 c 35.15671,0 64,-28.84329 64,-64 v -80 c 0,-26.32015 -21.67985,-48 -48,-48 -12.29591,0 -23.46684,4.8602 -32,12.58594 C 215.46684,124.8602 204.29591,120 192,120 c -26.32015,0 -48,21.67985 -48,48 v 80 h 32 v -80 c 0,-9.02607 6.97393,-16 16,-16 9.02607,0 16,6.97393 16,16 v 80 h 32 v -80 c 0,-9.02607 6.97393,-16 16,-16 9.02607,0 16,6.97393 16,16 v 80 c 0,17.86263 -14.13737,32 -32,32 h -96 c -17.86263,0 -32,-14.13737 -32,-32 V 104 Z"
           id="path4193-6-9-2-6"
           inkscape:connector-curvature="0" />
      </g>
    </g>
    <path
       style="fill:#505050;fill-opacity:1;stroke:none;stroke-width:0.498402;stroke-miterlimit:4;stroke-dasharray:none;stroke-opacity:1"
       d="m 319.99998,893.248 v 36.68813 h 15.09139 v 7.36211 l 0.0189,28.87552 c 0,23.78102 20.65668,41.82624 44.45905,41.82624 h 68.43066 v -72.58456 c 0,-23.80242 -20.63525,-41.82364 -44.45902,-41.82364 l -19.90658,-0.045 z m 33.42761,21.22692 h 11.16947 v 50.26124 c 0,6.23471 4.93477,11.16951 11.16947,11.16951 h 33.50571 c 6.2346,0 11.16946,-4.9348 11.16946,-11.16951 v -27.92232 c 0,-3.1504 -2.43303,-5.58601 -5.58343,-5.58601 -3.15039,0 -5.58603,2.43561 -5.58603,5.58601 v 27.92232 h -11.16947 v -27.92232 c 0,-3.1504 -2.43303,-5.58601 -5.58343,-5.58601 -3.15036,0 -5.58339,2.43561 -5.58339,5.58601 v 27.92232 h -11.16946 v -27.92232 c 0,-9.18651 7.56631,-16.75282 16.75285,-16.75282 4.29172,0 8.19112,1.6941 11.16947,4.39061 2.97838,-2.69651 6.87778,-4.39061 11.16946,-4.39061 9.18658,0 16.75285,7.56631 16.75285,16.75282 v 27.92232 c 0,12.27091 -10.06805,22.33902 -22.33888,22.33902 h -33.50575 c -12.27084,0 -22.33893,-10.06811 -22.33893,-22.33902 z"
       id="rect1013"
       inkscape:connector-curvature="0" />
    <g
       id="layer3"
       inkscape:label="Layer 1"
       transform="matrix(0.5,0,0,0.5,289.00001,267.75001)">
      <circle
         style="fill:none;fill-opacity:1;stroke:#505050;stroke-width:20;stroke-miterlimit:4;stroke-dasharray:none;stroke-opacity:1"
         id="path32"
         cx="189.99998"
         cy="200.49998"
         r="118" />
      <path
         style="color:#000000;fill:#505050;fill-opacity:1;stroke:none;stroke-width:0;-inkscape-stroke:none"
         d="m 119.99999,135.49999 v 90 c 0,21.97292 18.02708,40 40,40 h 60 c 21.97292,0 40,-18.02708 40,-40 v -50 c 0,-16.45008 -13.54992,-30 -30,-30 -7.68494,0 -14.66678,3.03762 -20,7.86622 -5.33322,-4.8286 -12.31506,-7.86622 -20,-7.86622 -16.45008,0 -30,13.54992 -30,30 v 50 h 20 v -50 c 0,-5.64128 4.35872,-10 10,-10 5.64128,0 10,4.35872 10,10 v 50 h 20 v -50 c 0,-5.64128 4.35872,-10 10,-10 5.64128,0 10,4.35872 10,10 v 50 c 0,11.16414 -8.83586,20 -20,20 h -60 c -11.16414,0 -20,-8.83586 -20,-20 v -90 z"
         id="path4193-3"
         sodipodi:nodetypes="csssssscssccsssccssssssscc" />
    </g>
    <g
       id="layer3-67"
       inkscape:label="Layer 1"
       transform="matrix(0.5,0,0,0.5,545.00001,267.75001)">
      <circle
         style="fill:#86be43;fill-opacity:1;stroke:#505050;stroke-width:20;stroke-miterlimit:4;stroke-dasharray:none;stroke-opacity:1"
         id="path32-5"
         cx="189.99998"
         cy="200.49998"
         r="118" />
      <path
         style="color:#000000;fill:#505050;fill-opacity:1;stroke:none;stroke-width:0;-inkscape-stroke:none"
         d="m 119.99999,135.49999 v 90 c 0,21.97292 18.02708,40 40,40 h 60 c 21.97292,0 40,-18.02708 40,-40 v -50 c 0,-16.45008 -13.54992,-30 -30,-30 -7.68494,0 -14.66678,3.03762 -20,7.86622 -5.33322,-4.8286 -12.31506,-7.86622 -20,-7.86622 -16.45008,0 -30,13.54992 -30,30 v 50 h 20 v -50 c 0,-5.64128 4.35872,-10 10,-10 5.64128,0 10,4.35872 10,10 v 50 h 20 v -50 c 0,-5.64128 4.35872,-10 10,-10 5.64128,0 10,4.35872 10,10 v 50 c 0,11.16414 -8.83586,20 -20,20 h -60 c -11.16414,0 -20,-8.83586 -20,-20 v -90 z"
         id="path4193-35"
         sodipodi:nodetypes="csssssscssccsssccssssssscc" />
    </g>
  </g>
</svg>
