<?xml version="1.0" encoding="UTF-8" standalone="no"?>
<!-- Created with Inkscape (http://www.inkscape.org/) -->

<svg
   width="2730"
   height="1536"
   viewBox="0 0 2730 1536"
   version="1.1"
   id="svg5"
   inkscape:version="1.1 (1:1.1+202105261517+ce6663b3b7)"
   sodipodi:docname="logo-name.svg"
   inkscape:export-filename="/home/sebastien/brand-logo/logo-name.png"
   inkscape:export-xdpi="96"
   inkscape:export-ydpi="96"
   xmlns:inkscape="http://www.inkscape.org/namespaces/inkscape"
   xmlns:sodipodi="http://sodipodi.sourceforge.net/DTD/sodipodi-0.dtd"
   xmlns="http://www.w3.org/2000/svg"
   xmlns:svg="http://www.w3.org/2000/svg">
  <sodipodi:namedview
     id="namedview7"
     pagecolor="#ffffff"
     bordercolor="#999999"
     borderopacity="1"
     inkscape:pageshadow="2"
     inkscape:pageopacity="0.0"
     inkscape:pagecheckerboard="0"
     inkscape:document-units="px"
     showgrid="false"
     units="px"
     width="1024px"
     scale-x="1"
     inkscape:zoom="1"
     inkscape:cx="974.24735"
     inkscape:cy="768"
     inkscape:current-layer="layer2"
     inkscape:snap-bbox="true"
     inkscape:bbox-nodes="true"
     inkscape:snap-nodes="false"
     inkscape:snap-others="false">
    <inkscape:grid
       type="xygrid"
       id="grid821"
       spacingx="16"
       spacingy="16"
       empspacing="4" />
  </sodipodi:namedview>
  <defs
     id="defs2" />
  <g
     inkscape:label="logo"
     inkscape:groupmode="layer"
     id="layer1"
     sodipodi:insensitive="true">
    <path
       style="color:#000000;fill:#000000;fill-opacity:1;stroke:none;stroke-width:0;-inkscape-stroke:none"
       d="m 185,192 c -34.67546,0 -63,28.32454 -63,63 v 90 c 0,21.97292 18.02708,40 40,40 h 60 c 21.97292,0 40,-18.02708 40,-40 v -50 c 0,-16.45009 -13.54992,-30 -30,-30 -7.68494,0 -14.66678,3.03859 -20,7.86719 C 206.66678,268.03859 199.68494,265 192,265 c -16.45008,0 -30,13.54991 -30,30 v 50 h 20 v -50 c 0,-5.64129 4.35872,-10 10,-10 5.64128,0 10,4.35871 10,10 v 50 h 20 v -50 c 0,-5.64129 4.35872,-10 10,-10 5.64128,0 10,4.35871 10,10 v 50 c 0,11.16414 -8.83586,20 -20,20 h -60 c -11.16414,0 -20,-8.83586 -20,-20 v -90 c 0,-23.86667 19.13333,-43 43,-43 h 7 c 59.76514,0 108,48.23486 108,108 0,59.76514 -48.23486,108 -108,108 -59.76514,0 -108,-48.23486 -108,-108 0,-19.70545 5.28084,-38.08824 14.47852,-53.98438 L 81.16602,256 C 70.27588,274.82119 64,296.71065 64,320 c 0,70.57393 57.42607,128 128,128 70.57393,0 128,-57.42607 128,-128 0,-70.57393 -57.42607,-128 -128,-128 z"
       id="path4193"
       sodipodi:nodetypes="cssssssscssccsssccssssssssccsssccssscc" />
    <path
       style="color:#000000;fill:#000000;fill-opacity:1;stroke:none;stroke-width:0;-inkscape-stroke:none"
       d="m 185,512 c -34.67546,0 -63,28.32454 -63,63 v 90 c 0,21.97292 18.02708,40 40,40 h 60 c 21.97292,0 40,-18.02708 40,-40 v -50 c 0,-16.45009 -13.54992,-30 -30,-30 -7.68494,0 -14.66678,3.03859 -20,7.86719 C 206.66678,588.03859 199.68494,585 192,585 c -16.45008,0 -30,13.54991 -30,30 v 50 h 20 v -50 c 0,-5.64129 4.35872,-10 10,-10 5.64128,0 10,4.35871 10,10 v 50 h 20 v -50 c 0,-5.64129 4.35872,-10 10,-10 5.64128,0 10,4.35871 10,10 v 50 c 0,11.16414 -8.83586,20 -20,20 h -60 c -11.16414,0 -20,-8.83586 -20,-20 v -90 c 0,-23.86667 19.13333,-43 43,-43 h 7 c 59.76514,0 108,48.23486 108,108 0,59.76514 -48.23486,108 -108,108 -59.76514,0 -108,-48.23486 -108,-108 0,-19.70545 5.28084,-38.08824 14.47852,-53.98438 L 81.16602,576 C 70.27588,594.82119 64,616.71065 64,640 c 0,70.57393 57.42607,128 128,128 70.57393,0 128,-57.42607 128,-128 0,-70.57393 -57.42607,-128 -128,-128 z"
       id="path877"
       sodipodi:nodetypes="cssssssscssccsssccssssssssccsssccssscc" />
    <path
       style="color:#000000;fill:#000000;fill-opacity:1;stroke:none;stroke-width:0;-inkscape-stroke:none"
       d="m 185,832 c -34.67546,0 -63,28.32454 -63,63 v 90 c 0,21.9729 18.02708,40 40,40 h 60 c 21.97292,0 40,-18.0271 40,-40 v -50 c 0,-16.45009 -13.54992,-30 -30,-30 -7.68494,0 -14.66678,3.03859 -20,7.86719 C 206.66678,908.03859 199.68494,905 192,905 c -16.45008,0 -30,13.54991 -30,30 v 50 h 20 v -50 c 0,-5.64129 4.35872,-10 10,-10 5.64128,0 10,4.35871 10,10 v 50 h 20 v -50 c 0,-5.64129 4.35872,-10 10,-10 5.64128,0 10,4.35871 10,10 v 50 c 0,11.16414 -8.83586,20 -20,20 h -60 c -11.16414,0 -20,-8.83586 -20,-20 v -90 c 0,-23.86667 19.13333,-43 43,-43 h 7 c 59.76514,0 108,48.23486 108,108 0,59.7651 -48.23486,108 -108,108 -59.76514,0 -108,-48.2349 -108,-108 0,-19.70545 5.28084,-38.08824 14.47852,-53.98438 L 81.16602,896 C 70.27588,914.82119 64,936.71065 64,960 c 0,70.5739 57.42607,128 128,128 70.57393,0 128,-57.4261 128,-128 0,-70.57393 -57.42607,-128 -128,-128 z"
       id="path879"
       sodipodi:nodetypes="cssssssscssccsssccssssssssccsssccssscc" />
    <path
       style="color:#000000;fill:#000000;fill-opacity:1;stroke:none;stroke-width:0;-inkscape-stroke:none"
       d="m 185,1152 c -34.67546,0 -63,28.3245 -63,63 v 90 c 0,21.9729 18.02708,40 40,40 h 60 c 21.97292,0 40,-18.0271 40,-40 v -50 c 0,-16.4501 -13.54992,-30 -30,-30 -7.68494,0 -14.66678,3.0386 -20,7.8672 -5.33322,-4.8286 -12.31506,-7.8672 -20,-7.8672 -16.45008,0 -30,13.5499 -30,30 v 50 h 20 v -50 c 0,-5.6413 4.35872,-10 10,-10 5.64128,0 10,4.3587 10,10 v 50 h 20 v -50 c 0,-5.6413 4.35872,-10 10,-10 5.64128,0 10,4.3587 10,10 v 50 c 0,11.1641 -8.83586,20 -20,20 h -60 c -11.16414,0 -20,-8.8359 -20,-20 v -90 c 0,-23.8667 19.13333,-43 43,-43 h 7 c 59.76514,0 108,48.2349 108,108 0,59.7651 -48.23486,108 -108,108 -59.76514,0 -108,-48.2349 -108,-108 0,-19.7054 5.28084,-38.0882 14.47852,-53.9844 L 81.16602,1216 C 70.27588,1234.8212 64,1256.7107 64,1280 c 0,70.5739 57.42607,128 128,128 70.57393,0 128,-57.4261 128,-128 0,-70.5739 -57.42607,-128 -128,-128 z"
       id="path881"
       sodipodi:nodetypes="cssssssscssccsssccssssssssccsssccssscc" />
    <path
       style="color:#000000;fill:#000000;fill-opacity:1;stroke:none;stroke-width:0;-inkscape-stroke:none"
       d="m 1550,192 c -34.6755,0 -63,28.32454 -63,63 v 90 c 0,21.97292 18.0271,40 40,40 h 60 c 21.9729,0 40,-18.02708 40,-40 v -50 c 0,-16.45009 -13.5499,-30 -30,-30 -7.6849,0 -14.6668,3.03859 -20,7.86719 -5.3332,-4.8286 -12.3151,-7.86719 -20,-7.86719 -16.4501,0 -30,13.54991 -30,30 v 50 h 20 v -50 c 0,-5.64129 4.3587,-10 10,-10 5.6413,0 10,4.35871 10,10 v 50 h 20 v -50 c 0,-5.64129 4.3587,-10 10,-10 5.6413,0 10,4.35871 10,10 v 50 c 0,11.16414 -8.8359,20 -20,20 h -60 c -11.1641,0 -20,-8.83586 -20,-20 v -90 c 0,-23.86667 19.1333,-43 43,-43 h 7 c 59.7651,0 108,48.23486 108,108 0,59.76514 -48.2349,108 -108,108 -59.7651,0 -108,-48.23486 -108,-108 0,-19.70545 5.2808,-38.08824 14.4785,-53.98438 L 1446.166,256 c -10.8901,18.82119 -17.166,40.71065 -17.166,64 0,70.57393 57.4261,128 128,128 70.5739,0 128,-57.42607 128,-128 0,-70.57393 -57.4261,-128 -128,-128 z"
       id="path224792"
       sodipodi:nodetypes="cssssssscssccsssccssssssssccsssccssscc" />
    <path
       style="color:#000000;fill:#000000;fill-opacity:1;stroke:none;stroke-width:0;-inkscape-stroke:none"
       d="m 1550,512 c -34.6755,0 -63,28.32454 -63,63 v 90 c 0,21.97292 18.0271,40 40,40 h 60 c 21.9729,0 40,-18.02708 40,-40 v -50 c 0,-16.45009 -13.5499,-30 -30,-30 -7.6849,0 -14.6668,3.03859 -20,7.86719 -5.3332,-4.8286 -12.3151,-7.86719 -20,-7.86719 -16.4501,0 -30,13.54991 -30,30 v 50 h 20 v -50 c 0,-5.64129 4.3587,-10 10,-10 5.6413,0 10,4.35871 10,10 v 50 h 20 v -50 c 0,-5.64129 4.3587,-10 10,-10 5.6413,0 10,4.35871 10,10 v 50 c 0,11.16414 -8.8359,20 -20,20 h -60 c -11.1641,0 -20,-8.83586 -20,-20 v -90 c 0,-23.86667 19.1333,-43 43,-43 h 7 c 59.7651,0 108,48.23486 108,108 0,59.76514 -48.2349,108 -108,108 -59.7651,0 -108,-48.23486 -108,-108 0,-19.70545 5.2808,-38.08824 14.4785,-53.98438 L 1446.166,576 c -10.8901,18.82119 -17.166,40.71065 -17.166,64 0,70.57393 57.4261,128 128,128 70.5739,0 128,-57.42607 128,-128 0,-70.57393 -57.4261,-128 -128,-128 z"
       id="path224802"
       sodipodi:nodetypes="cssssssscssccsssccssssssssccsssccssscc" />
    <path
       style="color:#000000;fill:#000000;fill-opacity:1;stroke:none;stroke-width:0;-inkscape-stroke:none"
       d="m 1550,832 c -34.6755,0 -63,28.32454 -63,63 v 90 c 0,21.9729 18.0271,40 40,40 h 60 c 21.9729,0 40,-18.0271 40,-40 v -50 c 0,-16.45009 -13.5499,-30 -30,-30 -7.6849,0 -14.6668,3.03859 -20,7.86719 -5.3332,-4.8286 -12.3151,-7.86719 -20,-7.86719 -16.4501,0 -30,13.54991 -30,30 v 50 h 20 v -50 c 0,-5.64129 4.3587,-10 10,-10 5.6413,0 10,4.35871 10,10 v 50 h 20 v -50 c 0,-5.64129 4.3587,-10 10,-10 5.6413,0 10,4.35871 10,10 v 50 c 0,11.16414 -8.8359,20 -20,20 h -60 c -11.1641,0 -20,-8.83586 -20,-20 v -90 c 0,-23.86667 19.1333,-43 43,-43 h 7 c 59.7651,0 108,48.23486 108,108 0,59.7651 -48.2349,108 -108,108 -59.7651,0 -108,-48.2349 -108,-108 0,-19.70545 5.2808,-38.08824 14.4785,-53.98438 L 1446.166,896 c -10.8901,18.82119 -17.166,40.71065 -17.166,64 0,70.5739 57.4261,128 128,128 70.5739,0 128,-57.4261 128,-128 0,-70.57393 -57.4261,-128 -128,-128 z"
       id="path224812"
       sodipodi:nodetypes="cssssssscssccsssccssssssssccsssccssscc" />
    <path
       style="color:#000000;fill:#000000;fill-opacity:1;stroke:none;stroke-width:0;-inkscape-stroke:none"
       d="m 1550,1152 c -34.6755,0 -63,28.3245 -63,63 v 90 c 0,21.9729 18.0271,40 40,40 h 60 c 21.9729,0 40,-18.0271 40,-40 v -50 c 0,-16.4501 -13.5499,-30 -30,-30 -7.6849,0 -14.6668,3.0386 -20,7.8672 -5.3332,-4.8286 -12.3151,-7.8672 -20,-7.8672 -16.4501,0 -30,13.5499 -30,30 v 50 h 20 v -50 c 0,-5.6413 4.3587,-10 10,-10 5.6413,0 10,4.3587 10,10 v 50 h 20 v -50 c 0,-5.6413 4.3587,-10 10,-10 5.6413,0 10,4.3587 10,10 v 50 c 0,11.1641 -8.8359,20 -20,20 h -60 c -11.1641,0 -20,-8.8359 -20,-20 v -90 c 0,-23.8667 19.1333,-43 43,-43 h 7 c 59.7651,0 108,48.2349 108,108 0,59.7651 -48.2349,108 -108,108 -59.7651,0 -108,-48.2349 -108,-108 0,-19.7054 5.2808,-38.0882 14.4785,-53.9844 L 1446.166,1216 c -10.8901,18.8212 -17.166,40.7107 -17.166,64 0,70.5739 57.4261,128 128,128 70.5739,0 128,-57.4261 128,-128 0,-70.5739 -57.4261,-128 -128,-128 z"
       id="path224822"
       sodipodi:nodetypes="cssssssscssccsssccssssssssccsssccssscc" />
  </g>
  <g
     inkscape:groupmode="layer"
     id="layer2"
     inkscape:label="name">
    <text
       xml:space="preserve"
       style="font-style:normal;font-weight:normal;font-size:186.667px;line-height:1.25;font-family:sans-serif;letter-spacing:-2px;fill:#000000;fill-opacity:1;stroke:none"
       x="343.43997"
       y="383.85361"
       id="text3847"><tspan
         sodipodi:role="line"
         id="tspan3845"
         x="343.43997"
         y="383.85361"
         style="font-style:normal;font-variant:normal;font-weight:normal;font-stretch:normal;font-size:186.667px;font-family:Ubuntu;-inkscape-font-specification:Ubuntu"
         dx="0 0 0 -1 -0.5 0 0 0 -0.5">linuxmint</tspan></text>
    <text
       xml:space="preserve"
       style="font-style:normal;font-weight:normal;font-size:186.667px;line-height:1.25;font-family:sans-serif;letter-spacing:-2px;fill:#000000;fill-opacity:1;stroke:none"
       x="343.43997"
       y="703.85358"
       id="text140786"><tspan
         sodipodi:role="line"
         id="tspan140784"
         x="343.43997"
         y="703.85358"
         style="font-style:italic;font-variant:normal;font-weight:normal;font-stretch:normal;font-size:186.667px;font-family:Ubuntu;-inkscape-font-specification:'Ubuntu Italic'"
         dx="0 0 0 -1 0 0 0 0 -0.5">linuxmint</tspan></text>
    <text
       xml:space="preserve"
       style="font-style:normal;font-weight:normal;font-size:186.667px;line-height:1.25;font-family:sans-serif;letter-spacing:-2px;fill:#000000;fill-opacity:1;stroke:none"
       x="343.43997"
       y="1023.8536"
       id="text156718"><tspan
         sodipodi:role="line"
         id="tspan156716"
         x="343.43997"
         y="1023.8536"
         style="font-style:normal;font-variant:normal;font-weight:500;font-stretch:normal;font-size:186.667px;font-family:Ubuntu;-inkscape-font-specification:'Ubuntu Medium'"
         dx="0 0 0 -1 -0.5 0 0 0 -0.5">linuxmint</tspan></text>
    <text
       xml:space="preserve"
       style="font-style:normal;font-weight:normal;font-size:186.667px;line-height:1.25;font-family:sans-serif;letter-spacing:-2px;fill:#000000;fill-opacity:1;stroke:none"
       x="343.43997"
       y="1343.8536"
       id="text196778"><tspan
         sodipodi:role="line"
         id="tspan196776"
         x="343.43997"
         y="1343.8536"
         style="font-style:italic;font-variant:normal;font-weight:500;font-stretch:normal;font-size:186.667px;font-family:Ubuntu;-inkscape-font-specification:'Ubuntu Medium Italic'"
         dx="0 0 0 -1 -0.5 0 0 0 -0.5">linuxmint</tspan></text>
    <text
       xml:space="preserve"
       style="font-style:normal;font-weight:normal;font-size:186.667px;line-height:1.25;font-family:sans-serif;letter-spacing:-2px;fill:#000000;fill-opacity:1;stroke:none"
       x="1708.4399"
       y="1024.2002"
       id="text304824"><tspan
         sodipodi:role="line"
         id="tspan304822"
         x="1708.4399"
         y="1024.2002"
         style="font-style:normal;font-variant:normal;font-weight:normal;font-stretch:normal;font-size:186.667px;font-family:Oxanium;-inkscape-font-specification:Oxanium">linuxmint</tspan></text>
    <text
       xml:space="preserve"
       style="font-style:normal;font-weight:normal;font-size:186.667px;line-height:1.25;font-family:sans-serif;letter-spacing:-2px;fill:#000000;fill-opacity:1;stroke:none"
       x="1708.4399"
       y="704.2002"
       id="text304828"><tspan
         sodipodi:role="line"
         id="tspan304826"
         x="1708.4399"
         y="704.2002"
         style="font-style:normal;font-variant:normal;font-weight:600;font-stretch:normal;font-size:186.667px;font-family:Oxanium;-inkscape-font-specification:'Oxanium Semi-Bold'"
         dx="0 0 0 0 0 0 0 0 0">linuxmint</tspan></text>
    <text
       xml:space="preserve"
       style="font-style:normal;font-weight:normal;font-size:186.667px;line-height:1.25;font-family:sans-serif;letter-spacing:-2px;fill:#000000;fill-opacity:1;stroke:none"
       x="1708.4399"
       y="384.20026"
       id="text304832"><tspan
         sodipodi:role="line"
         id="tspan304830"
         x="1708.4399"
         y="384.20026"
         style="font-style:normal;font-variant:normal;font-weight:600;font-stretch:normal;font-size:186.667px;font-family:Oxanium;-inkscape-font-specification:'Oxanium Semi-Bold'">LinuxMint</tspan></text>
    <text
       xml:space="preserve"
       style="font-style:normal;font-weight:normal;font-size:186.667px;line-height:1.25;font-family:sans-serif;letter-spacing:-2px;fill:#000000;fill-opacity:1;stroke:none"
       x="1708.4399"
       y="1344.2003"
       id="text420330"><tspan
         sodipodi:role="line"
         id="tspan420328"
         x="1708.4399"
         y="1344.2003"
         style="font-style:normal;font-variant:normal;font-weight:bold;font-stretch:normal;font-size:186.667px;font-family:Oxanium;-inkscape-font-specification:'Oxanium Bold'"
         dx="0 0 0 0 0 0 0 0 0">linuxmint</tspan></text>
  </g>
</svg>
