<?xml version="1.0" encoding="UTF-8" standalone="no"?>
<!-- Created with Inkscape (http://www.inkscape.org/) -->

<svg
   width="256"
   height="256"
   viewBox="0 0 256 256"
   id="svg2"
   version="1.1"
   inkscape:version="1.1 (1:1.1+202105261517+ce6663b3b7)"
   sodipodi:docname="ring.svg"
   inkscape:export-filename="/home/sebastien/Sources/LinuxMint-logo-Y/LM-logo-Y-01b(singleline).png"
   inkscape:export-xdpi="180"
   inkscape:export-ydpi="180"
   xmlns:inkscape="http://www.inkscape.org/namespaces/inkscape"
   xmlns:sodipodi="http://sodipodi.sourceforge.net/DTD/sodipodi-0.dtd"
   xmlns="http://www.w3.org/2000/svg"
   xmlns:svg="http://www.w3.org/2000/svg"
   xmlns:rdf="http://www.w3.org/1999/02/22-rdf-syntax-ns#"
   xmlns:cc="http://creativecommons.org/ns#"
   xmlns:dc="http://purl.org/dc/elements/1.1/">
  <defs
     id="defs4" />
  <sodipodi:namedview
     id="base"
     pagecolor="#c0c0c0"
     bordercolor="#666666"
     borderopacity="1.0"
     inkscape:pageopacity="1"
     inkscape:pageshadow="2"
     inkscape:zoom="3.4101562"
     inkscape:cx="128"
     inkscape:cy="128"
     inkscape:document-units="px"
     inkscape:current-layer="layer3"
     showgrid="true"
     inkscape:window-width="506"
     inkscape:window-height="546"
     inkscape:window-x="512"
     inkscape:window-y="0"
     inkscape:window-maximized="0"
     showguides="false"
     inkscape:guide-bbox="true"
     units="px"
     fit-margin-top="0"
     fit-margin-left="0"
     fit-margin-right="0"
     fit-margin-bottom="0"
     showborder="false"
     inkscape:showpageshadow="false"
     inkscape:pagecheckerboard="0">
    <inkscape:grid
       type="xygrid"
       id="grid4139"
       spacingx="10"
       spacingy="10"
       empspacing="2"
       originx="58"
       originy="53"
       empcolor="#ff3f3f"
       empopacity="0.25098039" />
  </sodipodi:namedview>
  <g
     inkscape:groupmode="layer"
     id="layer3"
     inkscape:label="Layer 1">
    <circle
       style="fill:#86be43;fill-opacity:1;stroke:#505050;stroke-width:20;stroke-miterlimit:4;stroke-dasharray:none;stroke-opacity:1"
       id="path32"
       cx="128"
       cy="128"
       r="118" />
    <path
       style="color:#000000;fill:#505050;fill-opacity:1;stroke:none;stroke-width:0;-inkscape-stroke:none"
       d="m 58.000005,63.000005 v 90.000005 c 0,21.97292 18.02708,40 40,40 h 60.000005 c 21.97292,0 40,-18.02708 40,-40 v -50 c 0,-16.450085 -13.54992,-30.000005 -30,-30.000005 -7.68494,0 -14.66678,3.03762 -20,7.86622 -5.33322,-4.8286 -12.31506,-7.86622 -20,-7.86622 -16.45008,0 -30.000005,13.54992 -30.000005,30.000005 v 50 h 20.000005 v -50 c 0,-5.641285 4.35872,-10.000005 10,-10.000005 5.64128,0 10,4.35872 10,10.000005 v 50 h 20 v -50 c 0,-5.641285 4.35872,-10.000005 10,-10.000005 5.64128,0 10,4.35872 10,10.000005 v 50 c 0,11.16414 -8.83586,20 -20,20 H 98.000005 c -11.16414,0 -20,-8.83586 -20,-20 V 63.000005 Z"
       id="path4193"
       sodipodi:nodetypes="csssssscssccsssccssssssscc" />
  </g>
</svg>
