<?xml version="1.0" encoding="UTF-8" standalone="no"?>
<!-- Created with Inkscape (http://www.inkscape.org/) -->

<svg
   width="256"
   height="256"
   viewBox="0 0 256 256"
   id="svg2"
   version="1.1"
   xml:space="preserve"
   sodipodi:docname="ring-mono.svg"
   inkscape:version="1.2.2 (1:1.2.2+202212051552+b0a8486541)"
   xmlns:inkscape="http://www.inkscape.org/namespaces/inkscape"
   xmlns:sodipodi="http://sodipodi.sourceforge.net/DTD/sodipodi-0.dtd"
   xmlns="http://www.w3.org/2000/svg"
   xmlns:svg="http://www.w3.org/2000/svg"><sodipodi:namedview
     id="namedview13089"
     pagecolor="#e5e5e5"
     bordercolor="#000000"
     borderopacity="0.25"
     inkscape:showpageshadow="2"
     inkscape:pageopacity="0"
     inkscape:pagecheckerboard="0"
     inkscape:deskcolor="#d1d1d1"
     showgrid="false"
     inkscape:zoom="3.4140625"
     inkscape:cx="127.85355"
     inkscape:cy="128"
     inkscape:current-layer="svg2" /><defs
     id="defs4" /><path
     id="Lm-path"
     style="color:#000000;fill:#ffffff;stroke:none;stroke-width:0;stroke-dasharray:none;fill-opacity:1"
     d="m 58,63 v 90 c 0,21.97292 18.02708,40 40,40 h 60 c 21.97292,0 40,-18.02708 40,-40 v -50 c 0,-16.45009 -13.54992,-30 -30,-30 -7.6848,0 -14.66681,3.0368 -20,7.86523 C 142.66681,76.0368 135.6848,73 128,73 111.54992,73 98,86.54992 98,103 v 50 h 20 v -50 c 0,-5.64129 4.35871,-10 10,-10 5.64129,0 10,4.35871 10,10 v 50 h 20 v -50 c 0,-5.64129 4.35871,-10 10,-10 5.64128,0 10,4.35871 10,10 v 50 c 0,11.16413 -8.83587,20 -20,20 H 98 C 86.83587,173 78,164.16413 78,153 V 63 Z M 128,0 C 57.426069,0 0,57.426069 0,128 0,198.57393 57.426069,256 128,256 198.57393,256 256,198.57393 256,128 256,57.426069 198.57393,0 128,0 Z m 0,20 c 59.76514,0 108,48.23486 108,108 0,59.76514 -48.23486,108 -108,108 C 68.23486,236 20,187.76514 20,128 20,68.23486 68.23486,20 128,20 Z" /></svg>
