<?xml version="1.0" encoding="UTF-8" standalone="no"?>
<!-- Created with Inkscape (http://www.inkscape.org/) -->

<svg
   width="256"
   height="256"
   viewBox="0 0 256 256"
   id="svg2"
   version="1.1"
   xml:space="preserve"
   xmlns="http://www.w3.org/2000/svg"
   xmlns:svg="http://www.w3.org/2000/svg"><defs
     id="defs4" /><circle
     style="fill:#86be43;fill-opacity:1;stroke:#ffffff;stroke-width:20;stroke-miterlimit:4;stroke-dasharray:none;stroke-opacity:1"
     id="circle"
     cx="128"
     cy="128"
     r="118" /><path
     style="color:#000000;fill:#ffffff;stroke:none;stroke-width:0;stroke-dasharray:none;fill-opacity:1"
     d="m 58,63 v 90 c 0,21.97292 18.02707,40 40,40 h 60 c 21.97292,0 40,-18.02708 40,-40 v -50 c 0,-16.45008 -13.54992,-30 -30,-30 -7.6848,0 -14.66681,3.0368 -20,7.86524 C 142.66681,76.0368 135.6848,73 128,73 111.54992,73 98,86.54992 98,103 v 50 h 20 v -50 c 0,-5.64129 4.35871,-10 10,-10 5.64129,0 10,4.35871 10,10 v 50 h 20 v -50 c 0,-5.64129 4.35871,-10 10,-10 5.64128,0 10,4.35872 10,10 v 50 c 0,11.16413 -8.83587,20 -20,20 H 98 C 86.83587,173 78,164.16413 78,153 V 63 Z"
     id="Lm-path" /></svg>
