<?xml version="1.0" encoding="UTF-8" standalone="no"?>
<!-- Created with Inkscape (http://www.inkscape.org/) -->

<svg
   width="256"
   height="256"
   viewBox="0 0 256 256"
   id="svg2"
   version="1.1"
   xml:space="preserve"
   sodipodi:docname="simple-mono.svg"
   inkscape:version="1.2.2 (1:1.2.2+202212051552+b0a8486541)"
   xmlns:inkscape="http://www.inkscape.org/namespaces/inkscape"
   xmlns:sodipodi="http://sodipodi.sourceforge.net/DTD/sodipodi-0.dtd"
   xmlns="http://www.w3.org/2000/svg"
   xmlns:svg="http://www.w3.org/2000/svg"><sodipodi:namedview
     id="namedview1485"
     pagecolor="#e5e5e5"
     bordercolor="#000000"
     borderopacity="0.25"
     inkscape:showpageshadow="2"
     inkscape:pageopacity="0"
     inkscape:pagecheckerboard="0"
     inkscape:deskcolor="#d1d1d1"
     showgrid="false"
     inkscape:zoom="3.4140625"
     inkscape:cx="127.85355"
     inkscape:cy="128"
     inkscape:current-layer="svg2" /><defs
     id="defs4" /><path
     style="color:#000000;fill:#ffffff;stroke:none;stroke-width:0;stroke-dasharray:none;fill-opacity:1"
     d="m 2,11 v 162 c 0,39.55126 32.44874,72 72,72 h 108 c 39.55126,0 72,-32.44874 72,-72 V 83 C 254,53.38985 229.61014,29 200,29 186.16736,29 173.59974,34.46624 164,43.15742 154.40026,34.46624 141.83264,29 128,29 98.38986,29 74,53.38985 74,83 v 90 h 36 V 83 c 0,-10.15432 7.84568,-18 18,-18 10.15432,0 18,7.84568 18,18 v 90 h 36 V 83 c 0,-10.15432 7.84568,-18 18,-18 10.1543,0 18,7.84568 18,18 v 90 c 0,20.09543 -15.90457,36 -36,36 H 74 C 53.90457,209 38,193.09543 38,173 V 11 Z"
     id="Lm-path" /></svg>
