<?xml version="1.0" encoding="UTF-8" standalone="no"?>
<!-- Created with Inkscape (http://www.inkscape.org/) -->

<svg
   width="276"
   height="276"
   viewBox="0 0 276 276"
   id="svg2"
   version="1.1"
   sodipodi:docname="ring-back.svg"
   inkscape:version="1.2.2 (1:1.2.2+202212051552+b0a8486541)"
   xmlns:inkscape="http://www.inkscape.org/namespaces/inkscape"
   xmlns:sodipodi="http://sodipodi.sourceforge.net/DTD/sodipodi-0.dtd"
   xmlns="http://www.w3.org/2000/svg"
   xmlns:svg="http://www.w3.org/2000/svg">
  <sodipodi:namedview
     id="namedview260"
     pagecolor="#ffffff"
     bordercolor="#000000"
     borderopacity="0.25"
     inkscape:showpageshadow="2"
     inkscape:pageopacity="0.0"
     inkscape:pagecheckerboard="0"
     inkscape:deskcolor="#d1d1d1"
     showgrid="false"
     inkscape:zoom="3.1666667"
     inkscape:cx="137.84211"
     inkscape:cy="138"
     inkscape:current-layer="svg2" />
  <defs
     id="defs4" />
  <g
     id="g1921">
    <circle
       style="fill:#86be43;fill-opacity:1;stroke:none;stroke-width:0"
       id="path33"
       cx="138"
       cy="138"
       r="138" />
    <path
       id="path4193"
       style="color:#000000;fill:#ffffff;fill-opacity:1;stroke:none;stroke-width:0;-inkscape-stroke:none"
       d="m 68.000005,73.000005 v 90.000005 c 0,21.97292 18.02708,40 40.000005,40 h 60 c 21.97292,0 40,-18.02708 40,-40 v -50 c 0,-16.450085 -13.54992,-30.000005 -30,-30.000005 -7.68494,0 -14.66678,3.03762 -20,7.86622 -5.33322,-4.8286 -12.31506,-7.86622 -20,-7.86622 -16.45008,0 -30,13.54992 -30,30.000005 v 50 h 20 v -50 c 0,-5.64128 4.35872,-10 10,-10 5.64128,0 10,4.35872 10,10 v 50 h 20 v -50 c 0,-5.64128 4.35872,-10 10,-10 5.64128,0 10,4.35872 10,10 v 50 c 0,11.16414 -8.83586,20 -20,20 h -60 c -11.164145,0 -20.000005,-8.83586 -20.000005,-20 V 73.000005 Z M 138,10 C 67.426069,10 10,67.426069 10,138 10,208.57393 67.426069,266 138,266 208.57393,266 266,208.57393 266,138 266,67.426069 208.57393,10 138,10 Z m 0,20 c 59.76514,0 108,48.23486 108,108 0,59.76514 -48.23486,108 -108,108 C 78.23486,246 30,197.76514 30,138 30,78.23486 78.23486,30 138,30 Z" />
  </g>
</svg>
