<?xml version="1.0" encoding="UTF-8" standalone="no"?>
<!-- Created with Inkscape (http://www.inkscape.org/) -->

<svg
   width="140"
   height="140"
   viewBox="0 0 140 140"
   id="svg2"
   version="1.1"
   xmlns="http://www.w3.org/2000/svg"
   xmlns:svg="http://www.w3.org/2000/svg">
  <defs
     id="defs4" />
  <g
     id="layer3">
    <path
       style="color:#000000;fill:#000000;fill-opacity:1;stroke:none;stroke-width:0;-inkscape-stroke:none"
       d="m 0,0 v 100 c 0,21.97292 18.02708,40 40,40 h 60 c 21.97292,0 40,-18.02708 40,-40 V 50 C 140,33.54992 126.45008,20 110,20 102.31506,20 95.33322,23.03762 90,27.86622 84.66678,23.03762 77.68494,20 70,20 53.54992,20 40,33.54992 40,50 v 50 H 60 V 50 c 0,-5.64128 4.35872,-10 10,-10 5.64128,0 10,4.35872 10,10 v 50 h 20 V 50 c 0,-5.64128 4.35872,-10 10,-10 5.64128,0 10,4.35872 10,10 v 50 c 0,11.16414 -8.83586,20 -20,20 H 40 C 28.83586,120 20,111.16414 20,100 V 0 Z"
       id="path4193" />
  </g>
</svg>
