<?xml version="1.0" encoding="UTF-8" standalone="no"?>
<!-- Created with Inkscape (http://www.inkscape.org/) -->

<svg
   width="1160"
   height="960"
   viewBox="0 0 1160 960"
   version="1.1"
   id="svg5"
   xml:space="preserve"
   sodipodi:docname="ring-name-paths.svg"
   inkscape:version="1.2.2 (1:1.2.2+202212051552+b0a8486541)"
   inkscape:export-filename="ring-name-paths.png"
   inkscape:export-xdpi="96"
   inkscape:export-ydpi="96"
   xmlns:inkscape="http://www.inkscape.org/namespaces/inkscape"
   xmlns:sodipodi="http://sodipodi.sourceforge.net/DTD/sodipodi-0.dtd"
   xmlns="http://www.w3.org/2000/svg"
   xmlns:svg="http://www.w3.org/2000/svg"><sodipodi:namedview
     id="namedview16"
     pagecolor="#ffffff"
     bordercolor="#000000"
     borderopacity="0.25"
     inkscape:showpageshadow="2"
     inkscape:pageopacity="1"
     inkscape:pagecheckerboard="0"
     inkscape:deskcolor="#d1d1d1"
     showgrid="false"
     inkscape:zoom="0.91041667"
     inkscape:cx="537.6659"
     inkscape:cy="480"
     inkscape:current-layer="layer2"
     showguides="true" /><defs
     id="defs2" /><g
     inkscape:groupmode="layer"
     id="layer1"
     inkscape:label="background"><g
       id="corners"
       style="display:inline"><path
         id="top-left"
         style="fill:none;fill-opacity:0.5;stroke:#989898;stroke-width:4;stroke-dasharray:none;stroke-opacity:1"
         d="M 2.0000001,64.000001 V 2.0000001 H 64.000001"
         sodipodi:nodetypes="ccc" /><path
         id="top-right"
         style="fill:none;fill-opacity:0.5;stroke:#989898;stroke-width:4;stroke-dasharray:none;stroke-opacity:1"
         d="M 1158,64.000001 V 2.0000001 h -62"
         sodipodi:nodetypes="ccc" /><path
         id="bottom-left"
         style="fill:none;fill-opacity:0.5;stroke:#989898;stroke-width:4;stroke-dasharray:none;stroke-opacity:1"
         d="m 2.0000001,896 v 62 H 64.000001"
         sodipodi:nodetypes="ccc" /><path
         id="bottom-right"
         style="fill:none;fill-opacity:0.5;stroke:#989898;stroke-width:4;stroke-dasharray:none;stroke-opacity:1"
         d="m 1158,896 v 62 h -62"
         sodipodi:nodetypes="ccc" /></g></g><g
     inkscape:groupmode="layer"
     id="layer2"
     inkscape:label="logo-and-name"
     style="display:inline"><path
       id="name-Ubuntu"
       d="m 1065.7788,227.28 q -13.68,0 -21.47,-4.75 -7.79,-4.75 -11.0201,-13.87 -3.0399,-9.12 -3.0399,-22.23 V 99.22 l 19.95,-3.42 v 30.4 h 36.6699 v 16.72 h -36.6699 V 187 q 0,8.55 1.8999,13.68 2.09,5.13 6.0799,7.22 3.9901,2.09 10.0701,2.09 6.27,0 11.02,-1.33 4.94,-1.33 8.17,-2.66 l 3.42,15.77 q -3.7999,1.9 -10.26,3.61 -6.4601,1.9 -14.8199,1.9 z m -139.5899,-2.09 v -95.57 q 6.46,-1.9 16.72,-3.61 10.26,-1.9 23.18,-1.9 16.15,0 25.08,5.7 8.93,5.7 12.54,15.96 3.61,10.26 3.61,23.75 v 55.67 h -19.95 v -51.87 q 0,-11.78 -2.09,-18.62 -2.09,-7.03 -7.03,-10.07 -4.94,-3.23 -13.87,-3.23 -5.89,0 -11.02,0.76 -4.94,0.57 -7.03,1.14 v 81.89 z m -44.77985,0 V 126.2 h 20.14 v 98.99 z m 9.88,-115.33 q -5.13,0 -8.93,-3.42 -3.8,-3.61 -3.8,-9.69 0,-5.89 3.8,-9.31 3.8,-3.61 8.93,-3.61 5.32,0 9.12,3.61 3.8,3.42 3.8,9.31 0,6.08 -3.8,9.69 -3.8,3.42 -9.12,3.42 z M 722.62914,225.19 v -95.57 q 6.65,-1.9 16.53,-3.61 10.07,-1.9 22.42,-1.9 10.07,0 16.72,2.66 6.84,2.66 11.21,7.41 2.66,-2.09 7.22,-4.37 4.56,-2.28 10.64,-3.99 6.08,-1.71 12.92,-1.71 15.39,0 23.37,5.89 8.17,5.7 11.02,15.96 3.04,10.07 3.04,23.56 v 55.67 h -19.95 v -51.87 q 0,-11.21 -1.71,-18.24 -1.52,-7.03 -5.89,-10.26 -4.37,-3.42 -12.35,-3.42 -4.75,0 -8.93,1.14 -3.99,1.14 -7.03,2.85 -2.85,1.52 -4.56,2.66 1.52,4.56 2.09,10.26 0.76,5.51 0.76,11.59 v 55.29 h -19.95 v -51.87 q 0,-11.21 -1.71,-18.24 -1.52,-7.03 -5.89,-10.26 -4.37,-3.42 -12.73,-3.42 -3.8,0 -7.22,0.38 -3.42,0.19 -5.89,0.76 -2.47,0.38 -3.99,0.76 v 81.89 z m -105.95994,0 q 4.37,-8.17 9.88,-17.1 5.7,-8.93 11.97,-17.86 6.46,-8.93 12.54,-16.91 l -33.06,-47.12 h 22.23 l 22.8,34.2 22.8,-34.2 h 20.9 l -32.49,46.74 q 6.46,8.17 12.73,17.1 6.46,8.93 12.16,17.86 5.7,8.93 9.88,17.29 h -21.47 q -2.47,-4.94 -6.65,-11.59 -4.18,-6.84 -8.93,-14.25 -4.75,-7.41 -9.5,-13.49 -4.75,6.08 -9.5,13.3 -4.75,7.03 -8.93,13.87 -3.99,6.84 -6.84,12.16 z m -51.82982,2.09 q -15.77,0 -24.89,-5.7 -8.93,-5.89 -12.73,-16.15 -3.61,-10.45 -3.61,-23.94 V 126.2 h 19.95 v 51.68 q 0,11.59 2.09,18.62 2.28,7.03 7.41,10.26 5.13,3.04 13.49,3.04 5.89,0 10.83,-0.57 5.13,-0.57 7.41,-1.14 V 126.2 h 19.95 v 95.57 q -6.46,1.71 -16.72,3.61 -10.26,1.9 -23.18,1.9 z m -145.09984,-2.09 v -95.57 q 6.46,-1.9 16.72,-3.61 10.26,-1.9 23.18,-1.9 16.15,0 25.08,5.7 8.93,5.7 12.54,15.96 3.61,10.26 3.61,23.75 v 55.67 h -19.95 v -51.87 q 0,-11.78 -2.09,-18.62 -2.09,-7.03 -7.03,-10.07 -4.94,-3.23 -13.87,-3.23 -5.89,0 -11.02,0.76 -4.94,0.57 -7.03,1.14 v 81.89 z m -44.77983,0 V 126.2 h 20.14 v 98.99 z m 9.88,-115.33 q -5.13,0 -8.93,-3.42 -3.8,-3.61 -3.8,-9.69 0,-5.89 3.8,-9.31 3.8,-3.61 8.93,-3.61 5.32,0 9.12,3.61 3.8,3.42 3.8,9.31 0,6.08 -3.8,9.69 -3.8,3.42 -9.12,3.42 z M 358.10999,226.9 q -12.16,-0.38 -19.19,-3.61 -7.03,-3.23 -10.07,-9.69 -2.85,-6.46 -2.85,-16.53 V 81.17 l 19.95,-3.42 v 116.47 q 0,8.55 3.04,11.97 3.04,3.23 11.97,4.18 z"
       style="stroke-width:0;stroke-dasharray:none;stroke:none;fill:#1dc99e;fill-opacity:1" /><path
       id="path877"
       style="font-size:185px;font-family:'Exo 2';-inkscape-font-specification:'Exo 2, @wght=550';font-variation-settings:'wght' 550;fill:#1dc99e;stroke:none"
       d="m 1094.3031,426.90501 v 90.28 q 0,5.92 2.59,8.51 2.59,2.405 8.88,2.405 h 12.95 l 2.22,14.43 q -3.145,0.925 -7.4,1.48 -4.255,0.74 -8.325,1.11 -4.07,0.37 -6.66,0.37 -11.84,0 -18.13,-6.29 -6.29,-6.475 -6.29,-18.5 v -93.795 z m 27.565,26.27 v 14.43 h -63.825 v -13.505 l 17.76,-0.925 z m -106.0048,-2.405 q 24.975,0 24.975,24.975 v 67.895 h -20.165 v -61.79 q 0,-7.955 -2.775,-10.915 -2.59,-3.145 -8.88,-3.145 -7.4,0 -14.98499,3.515 -7.585,3.33 -18.13,9.435 l -0.925,-12.765 q 10.175,-8.14 20.535,-12.58 10.35999,-4.625 20.34999,-4.625 z m -41.43999,2.405 2.035,17.39 1.48,2.775 v 70.3 h -20.165 v -90.465 z m -43.8448,0 v 90.465 h -19.98 v -90.465 z m -5.365,-39.22 q 6.105,0 6.105,6.105 v 10.36 q 0,6.105 -6.105,6.105 h -9.065 q -6.105,0 -6.105,-6.105 v -10.36 q 0,-6.105 6.105,-6.105 z m -65.67472,36.815 q 11.84,0 18.13,6.475 6.29,6.29 6.29,18.5 v 67.895 h -19.98 v -61.79 q 0,-7.4 -2.775,-10.73 -2.775,-3.33 -9.62,-3.33 -4.255,0 -8.14,1.295 -3.885,1.295 -8.51,4.255 -4.625,2.775 -11.285,7.4 l -1.295,-12.58 q 9.62,-8.695 18.5,-12.95 9.065,-4.44 18.685,-4.44 z m -95.83,2.405 1.85,17.39 2.035,2.775 v 70.3 h -20.165 v -90.465 z m 37.555,-2.405 q 11.655,0 17.76,6.29 6.29,6.29 6.475,18.685 v 67.895 h -19.425 v -61.79 q 0,-7.77 -3.145,-10.915 -3.145,-3.145 -9.435,-3.145 -4.07,0 -7.955,1.295 -3.7,1.295 -8.51,4.07 -4.81,2.775 -11.655,7.585 l -1.295,-12.58 q 9.435,-8.695 18.315,-12.95 9.065,-4.44 18.87,-4.44 z m -72.51986,2.405 -27.38,43.845 29.6,46.62 h -21.09 l -28.49,-46.62 26.27,-43.845 z m -68.265,0 26.27,43.845 -28.305,46.62 h -21.275 l 29.6,-46.62 -27.38,-43.845 z m 35.15,36.445 v 14.06 h -22.94 v -14.06 z m -136.15972,-36.445 v 61.975 q -0.185,7.4 2.775,10.545 3.145,3.145 10.175,3.145 6.845,0 13.505,-2.96 6.845,-3.145 16.65,-9.25 l 2.035,12.58 q -10.36,8.325 -20.165,12.58 -9.805,4.255 -19.98,4.255 -25.16,0 -25.16,-24.975 v -67.895 z m 61.05,0 v 90.465 h -15.91 l -2.22,-17.39 -2.035,-2.59 v -70.485 z m -131.53478,-2.405 q 24.975,0 24.975,24.975 v 67.895 h -20.165 v -61.79 q 0,-7.955 -2.775,-10.915 -2.59,-3.145 -8.88,-3.145 -7.4,0 -14.985,3.515 -7.585,3.33 -18.13,9.435 l -0.925,-12.765 q 10.175,-8.14 20.535,-12.58 10.36,-4.625 20.35,-4.625 z m -41.44,2.405 2.035,17.39 1.48,2.775 v 70.3 h -20.165 v -90.465 z m -43.84479,0 v 90.465 h -19.98 v -90.465 z m -5.365,-39.22 q 6.105,0 6.105,6.105 v 10.36 q 0,6.105 -6.105,6.105 h -9.065 q -6.105,0 -6.105,-6.105 v -10.36 q 0,-6.105 6.105,-6.105 z m -52.16965,0.185 -0.185,103.045 q 0,5.365 2.96,8.14 3.145,2.775 8.88,2.775 h 8.14 l 2.405,14.43 q -1.85,0.925 -5.365,1.48 -3.33,0.74 -7.03,1.11 -3.7,0.37 -6.105,0.37 -10.915,0 -17.39,-6.105 -6.475,-6.105 -6.475,-17.39 v -107.855 z" /><path
       id="path906"
       style="font-size:175px;font-family:Oxanium;-inkscape-font-specification:'Oxanium, @wght=585';font-variation-settings:'wght' 585;fill:#1dc99e;stroke-width:0;stroke-dasharray:none;stroke:none"
       d="M 1031.949,836.525 V 743.25 h 19.95 v 28.875 h 31.5 v 17.5 h -31.5 v 48.65 q 0,8.4 8.4,8.4 h 24.85 v 10.5 l -9.1,6.825 h -16.45 q -27.65,0 -27.65,-27.475 z M 929.22412,864 v -91.875 h 50.4 q 27.29998,0 27.29998,27.65 V 864 h -19.94998 v -65.975 q 0,-8.4 -8.4,-8.4 h -29.4 V 864 Z M 882.32424,756.2 v -20.475 h 21.175 V 756.2 Z m 0.525,107.8 v -91.875 h 19.95 V 864 Z m -157.67483,0 v -91.875 h 104.65 q 27.3,0 27.3,27.65 V 864 h -19.95 v -65.975 q 0,-8.4 -8.4,-8.4 h -27.475 V 864 h -20.125 v -74.375 h -36.05 V 864 Z m -102.72472,-3.5 30.975,-43.05 -30.1,-41.825 1.75,-3.5 h 18.375 l 21.175,30.45 21.35,-30.45 h 18.375 l 1.75,3.5 -30.1,41.825 30.975,43.05 -1.575,3.5 h -18.55 l -22.225,-31.675 -22.05,31.675 h -18.55 z m -96.07494,-23.975 v -64.4 h 19.95 v 66.15 q 0,8.4 8.4,8.4 h 29.4 v -74.55 h 19.95 V 864 h -50.05 q -27.65,0 -27.65,-27.475 z M 423.64983,864 v -91.875 h 50.4 q 27.3,0 27.3,27.65 V 864 h -19.95 v -65.975 q 0,-8.4 -8.4,-8.4 h -29.4 V 864 Z m -46.8999,-107.8 v -20.475 h 21.175 V 756.2 Z m 0.525,107.8 v -91.875 h 19.95 V 864 Z M 326.00001,834.075 V 734.5 h 19.95 V 836 q 0,11.375 11.725,12.425 v 17.15 q -31.675,0 -31.675,-31.5 z" /><g
       id="ring-1"
       transform="translate(32,32)"><path
         style="color:#000000;fill:#ffffff;fill-opacity:1;stroke:none;stroke-width:0;stroke-dasharray:none"
         d="M 246,128 A 118,118 0 0 1 128,246 118,118 0 0 1 10,128 118,118 0 0 1 128,10 118,118 0 0 1 246,128 Z"
         id="background-circle-4" /><path
         id="Lm-path-5"
         style="color:#000000;fill:#1dc99e;fill-opacity:1;stroke:none;stroke-width:0;stroke-dasharray:none"
         d="m 58,63 v 90 c 0,21.97292 18.02707,40 40,40 h 60 c 21.97292,0 40,-18.02708 40,-40 v -50 c 0,-16.45008 -13.54992,-30 -30,-30 -7.6848,0 -14.66681,3.0368 -20,7.86524 C 142.66681,76.0368 135.6848,73 128,73 111.54992,73 98,86.54992 98,103 v 50 h 20 v -50 c 0,-5.64129 4.35871,-10 10,-10 5.64129,0 10,4.35871 10,10 v 50 h 20 v -50 c 0,-5.64129 4.35871,-10 10,-10 5.64128,0 10,4.35872 10,10 v 50 c 0,11.16413 -8.83587,20 -20,20 H 98 C 86.83587,173 78,164.16413 78,153 V 63 Z M 128,0 C 57.426069,0 0,57.426069 0,128 0,198.57393 57.426069,256 128,256 198.57393,256 256,198.57393 256,128 256,57.426069 198.57393,0 128,0 Z m 0,20 c 59.76514,0 108,48.23486 108,108 0,59.76514 -48.23486,108 -108,108 C 68.23486,236 20,187.76514 20,128 20,68.23486 68.23486,20 128,20 Z" /></g><g
       id="ring-2"
       transform="translate(32,352)"><path
         style="color:#000000;fill:#ffffff;fill-opacity:1;stroke:none;stroke-width:0;stroke-dasharray:none"
         d="M 246,128 A 118,118 0 0 1 128,246 118,118 0 0 1 10,128 118,118 0 0 1 128,10 118,118 0 0 1 246,128 Z"
         id="path6444" /><path
         id="path6446"
         style="color:#000000;fill:#1dc99e;fill-opacity:1;stroke:none;stroke-width:0;stroke-dasharray:none"
         d="m 58,63 v 90 c 0,21.97292 18.02707,40 40,40 h 60 c 21.97292,0 40,-18.02708 40,-40 v -50 c 0,-16.45008 -13.54992,-30 -30,-30 -7.6848,0 -14.66681,3.0368 -20,7.86524 C 142.66681,76.0368 135.6848,73 128,73 111.54992,73 98,86.54992 98,103 v 50 h 20 v -50 c 0,-5.64129 4.35871,-10 10,-10 5.64129,0 10,4.35871 10,10 v 50 h 20 v -50 c 0,-5.64129 4.35871,-10 10,-10 5.64128,0 10,4.35872 10,10 v 50 c 0,11.16413 -8.83587,20 -20,20 H 98 C 86.83587,173 78,164.16413 78,153 V 63 Z M 128,0 C 57.426069,0 0,57.426069 0,128 0,198.57393 57.426069,256 128,256 198.57393,256 256,198.57393 256,128 256,57.426069 198.57393,0 128,0 Z m 0,20 c 59.76514,0 108,48.23486 108,108 0,59.76514 -48.23486,108 -108,108 C 68.23486,236 20,187.76514 20,128 20,68.23486 68.23486,20 128,20 Z" /></g><g
       id="ring-3"
       transform="translate(32,672)"><path
         style="color:#000000;fill:#ffffff;fill-opacity:1;stroke:none;stroke-width:0;stroke-dasharray:none"
         d="M 246,128 A 118,118 0 0 1 128,246 118,118 0 0 1 10,128 118,118 0 0 1 128,10 118,118 0 0 1 246,128 Z"
         id="path6450" /><path
         id="path6452"
         style="color:#000000;fill:#1dc99e;fill-opacity:1;stroke:none;stroke-width:0;stroke-dasharray:none"
         d="m 58,63 v 90 c 0,21.97292 18.02707,40 40,40 h 60 c 21.97292,0 40,-18.02708 40,-40 v -50 c 0,-16.45008 -13.54992,-30 -30,-30 -7.6848,0 -14.66681,3.0368 -20,7.86524 C 142.66681,76.0368 135.6848,73 128,73 111.54992,73 98,86.54992 98,103 v 50 h 20 v -50 c 0,-5.64129 4.35871,-10 10,-10 5.64129,0 10,4.35871 10,10 v 50 h 20 v -50 c 0,-5.64129 4.35871,-10 10,-10 5.64128,0 10,4.35872 10,10 v 50 c 0,11.16413 -8.83587,20 -20,20 H 98 C 86.83587,173 78,164.16413 78,153 V 63 Z M 128,0 C 57.426069,0 0,57.426069 0,128 0,198.57393 57.426069,256 128,256 198.57393,256 256,198.57393 256,128 256,57.426069 198.57393,0 128,0 Z m 0,20 c 59.76514,0 108,48.23486 108,108 0,59.76514 -48.23486,108 -108,108 C 68.23486,236 20,187.76514 20,128 20,68.23486 68.23486,20 128,20 Z" /></g></g></svg>
