<?xml version="1.0" encoding="UTF-8" standalone="no"?>
<!-- Created with Inkscape (http://www.inkscape.org/) -->

<svg
   width="256"
   height="256"
   viewBox="0 0 256 256"
   version="1.1"
   id="svg5"
   inkscape:version="1.1 (1:1.1+202105261517+ce6663b3b7)"
   sodipodi:docname="leaf.svg"
   xmlns:inkscape="http://www.inkscape.org/namespaces/inkscape"
   xmlns:sodipodi="http://sodipodi.sourceforge.net/DTD/sodipodi-0.dtd"
   xmlns="http://www.w3.org/2000/svg"
   xmlns:svg="http://www.w3.org/2000/svg">
  <sodipodi:namedview
     id="namedview7"
     pagecolor="#ffffff"
     bordercolor="#999999"
     borderopacity="1"
     inkscape:pageshadow="2"
     inkscape:pageopacity="0.0"
     inkscape:pagecheckerboard="0"
     inkscape:document-units="px"
     showgrid="false"
     units="px"
     width="1024px"
     scale-x="1"
     inkscape:zoom="3"
     inkscape:cx="127.83333"
     inkscape:cy="127.83333"
     inkscape:current-layer="layer2"
     inkscape:object-paths="true"
     inkscape:snap-smooth-nodes="true"
     inkscape:snap-bbox="true"
     inkscape:lockguides="true"
     showguides="false">
    <inkscape:grid
       type="xygrid"
       id="grid821"
       spacingx="12.5"
       spacingy="12.5"
       empspacing="4"
       originx="40.5"
       originy="53" />
    <sodipodi:guide
       position="0,0"
       orientation="-256,256"
       id="guide2902"
       inkscape:locked="true" />
    <sodipodi:guide
       position="0,256"
       orientation="256,256"
       inkscape:locked="true"
       id="guide3413" />
  </sodipodi:namedview>
  <defs
     id="defs2" />
  <g
     inkscape:label="Layer 1"
     inkscape:groupmode="layer"
     id="layer1"
     style="display:inline">
    <path
       id="path891"
       style="fill:#00b894;fill-opacity:1;stroke:none;stroke-width:0"
       d="M 0,0 V 128 A 128,128 0 0 0 128,256 H 256 V 128 A 128,128 0 0 0 128,0 Z" />
  </g>
  <g
     inkscape:groupmode="layer"
     id="layer2"
     inkscape:label="Lm"
     sodipodi:insensitive="true"
     style="display:inline">
    <path
       id="path845"
       style="fill:#ffffff;fill-opacity:1;stroke:none;stroke-width:0"
       d="M 0,0 V 17.644531 L 33.177734,50.822266 C 37.869528,55.514059 40.5,61.864809 40.5,68.5 v 97 c 0,27.46612 22.533872,50 50,50 h 75 c 27.46612,0 50,-22.53388 50,-50 V 103 c 0,-20.562575 -16.93743,-37.5 -37.5,-37.5 -9.60593,0 -18.33354,3.796562 -25,9.832031 C 146.33354,69.296562 137.60593,65.5 128,65.5 107.43742,65.5 90.5,82.43743 90.5,103 v 62.5 h 25 V 103 c 0,-7.051631 5.44836,-12.5 12.5,-12.5 7.05164,0 12.5,5.448369 12.5,12.5 v 62.5 h 25 V 103 c 0,-7.051631 5.44836,-12.5 12.5,-12.5 7.05162,0 12.5,5.448377 12.5,12.5 v 62.5 c 0,13.95518 -11.04482,25 -25,25 h -75 c -13.955186,0 -25,-11.04482 -25,-25 v -97 C 65.5,55.244031 60.228859,42.517921 50.855469,33.144531 L 17.710938,0 Z" />
  </g>
</svg>
