<?xml version="1.0" encoding="UTF-8" standalone="no"?>
<!-- Created with Inkscape (http://www.inkscape.org/) -->

<svg
   width="256"
   height="256"
   viewBox="0 0 256 256"
   version="1.1"
   id="svg5"
   inkscape:version="1.1 (1:1.1+202105261517+ce6663b3b7)"
   sodipodi:docname="leaf-mono.svg"
   xmlns:inkscape="http://www.inkscape.org/namespaces/inkscape"
   xmlns:sodipodi="http://sodipodi.sourceforge.net/DTD/sodipodi-0.dtd"
   xmlns="http://www.w3.org/2000/svg"
   xmlns:svg="http://www.w3.org/2000/svg">
  <sodipodi:namedview
     id="namedview7"
     pagecolor="#ffffff"
     bordercolor="#999999"
     borderopacity="1"
     inkscape:pageshadow="2"
     inkscape:pageopacity="0.0"
     inkscape:pagecheckerboard="0"
     inkscape:document-units="px"
     showgrid="false"
     units="px"
     width="1024px"
     scale-x="1"
     inkscape:zoom="3"
     inkscape:cx="127.83333"
     inkscape:cy="127.83333"
     inkscape:current-layer="layer1"
     inkscape:object-paths="true"
     inkscape:snap-smooth-nodes="true"
     inkscape:snap-bbox="true"
     inkscape:lockguides="true"
     showguides="false">
    <inkscape:grid
       type="xygrid"
       id="grid821"
       spacingx="12.5"
       spacingy="12.5"
       empspacing="4"
       originx="40.5"
       originy="53" />
    <sodipodi:guide
       position="0,0"
       orientation="-256,256"
       id="guide2902"
       inkscape:locked="true" />
    <sodipodi:guide
       position="0,256"
       orientation="256,256"
       inkscape:locked="true"
       id="guide3413" />
  </sodipodi:namedview>
  <defs
     id="defs2" />
  <g
     inkscape:label="Layer 1"
     inkscape:groupmode="layer"
     id="layer1"
     style="display:inline">
    <path
       id="path891"
       style="fill:#808080;fill-opacity:1;stroke:none;stroke-width:0"
       d="M 17.710938 0 L 50.855469 33.144531 C 60.228859 42.517921 65.5 55.244031 65.5 68.5 L 65.5 165.5 C 65.5 179.45518 76.544814 190.5 90.5 190.5 L 165.5 190.5 C 179.45518 190.5 190.5 179.45518 190.5 165.5 L 190.5 103 C 190.5 95.948377 185.05162 90.5 178 90.5 C 170.94836 90.5 165.5 95.948369 165.5 103 L 165.5 165.5 L 140.5 165.5 L 140.5 103 C 140.5 95.948369 135.05164 90.5 128 90.5 C 120.94836 90.5 115.5 95.948369 115.5 103 L 115.5 165.5 L 90.5 165.5 L 90.5 103 C 90.5 82.43743 107.43742 65.5 128 65.5 C 137.60593 65.5 146.33354 69.296562 153 75.332031 C 159.66646 69.296562 168.39407 65.5 178 65.5 C 198.56257 65.5 215.5 82.437425 215.5 103 L 215.5 165.5 C 215.5 192.96612 192.96612 215.5 165.5 215.5 L 90.5 215.5 C 63.033872 215.5 40.5 192.96612 40.5 165.5 L 40.5 68.5 C 40.5 61.864809 37.869528 55.514059 33.177734 50.822266 L 0 17.644531 L 0 128 A 128 128 0 0 0 128 256 L 256 256 L 256 128 A 128 128 0 0 0 128 0 L 17.710938 0 z " />
  </g>
  <g
     inkscape:groupmode="layer"
     id="layer2"
     inkscape:label="Lm"
     style="display:inline" />
</svg>
