<?xml version="1.0" encoding="UTF-8" standalone="no"?>
<!-- Created with Inkscape (http://www.inkscape.org/) -->

<svg
   width="256"
   height="256"
   viewBox="0 0 256 256"
   id="svg2"
   version="1.1"
   sodipodi:docname="simple-mono.svg"
   inkscape:version="1.1 (1:1.1+202105261517+ce6663b3b7)"
   xmlns:inkscape="http://www.inkscape.org/namespaces/inkscape"
   xmlns:sodipodi="http://sodipodi.sourceforge.net/DTD/sodipodi-0.dtd"
   xmlns="http://www.w3.org/2000/svg"
   xmlns:svg="http://www.w3.org/2000/svg">
  <sodipodi:namedview
     id="namedview28"
     pagecolor="#cccccc"
     bordercolor="#666666"
     borderopacity="1.0"
     inkscape:pageshadow="2"
     inkscape:pageopacity="0"
     inkscape:pagecheckerboard="0"
     showgrid="false"
     inkscape:zoom="2.9492188"
     inkscape:cx="128"
     inkscape:cy="128"
     inkscape:current-layer="svg2" />
  <defs
     id="defs4" />
  <g
     id="layer3"
     style="fill:#ffffff;fill-opacity:1">
    <path
       style="color:#000000;fill:#ffffff;fill-opacity:1;stroke:none;stroke-width:0;-inkscape-stroke:none"
       d="m 2,11 v 162 c 0,39.55126 32.44874,72 72,72 h 108 c 39.55126,0 72,-32.44874 72,-72 V 83 C 254,53.38986 229.61014,29 200,29 186.16711,29 173.5998,34.46772 164,43.1592 154.4002,34.46772 141.83289,29 128,29 98.38986,29 74,53.38986 74,83 v 90 h 36 V 83 c 0,-10.1543 7.8457,-18 18,-18 10.1543,0 18,7.8457 18,18 v 90 h 36 V 83 c 0,-10.1543 7.8457,-18 18,-18 10.1543,0 18,7.8457 18,18 v 90 c 0,20.09545 -15.90455,36 -36,36 H 74 C 53.90455,209 38,193.09545 38,173 V 11 Z"
       id="path4193" />
  </g>
</svg>
