<?xml version="1.0" encoding="UTF-8" standalone="no"?>
<!-- Created with Inkscape (http://www.inkscape.org/) -->

<svg
   width="140"
   height="140"
   viewBox="0 0 140 140"
   id="svg2"
   version="1.1"
   sodipodi:docname="2-origin-path-22.svg"
   inkscape:version="1.2 (1:1.2.1+202207142221+cd75a1ee6d)"
   xmlns:inkscape="http://www.inkscape.org/namespaces/inkscape"
   xmlns:sodipodi="http://sodipodi.sourceforge.net/DTD/sodipodi-0.dtd"
   xmlns="http://www.w3.org/2000/svg"
   xmlns:svg="http://www.w3.org/2000/svg">
  <sodipodi:namedview
     id="namedview10"
     pagecolor="#ffffff"
     bordercolor="#000000"
     borderopacity="0.25"
     inkscape:showpageshadow="2"
     inkscape:pageopacity="0.0"
     inkscape:pagecheckerboard="0"
     inkscape:deskcolor="#d1d1d1"
     showgrid="true"
     inkscape:zoom="6"
     inkscape:cx="54.333333"
     inkscape:cy="70"
     inkscape:window-width="1920"
     inkscape:window-height="1017"
     inkscape:window-x="0"
     inkscape:window-y="0"
     inkscape:window-maximized="1"
     inkscape:current-layer="layer1">
    <inkscape:grid
       type="xygrid"
       id="grid293"
       spacingx="10"
       spacingy="10"
       empspacing="1" />
  </sodipodi:namedview>
  <defs
     id="defs4" />
  <g
     inkscape:groupmode="layer"
     id="layer1"
     inkscape:label="Lm">
    <path
       style="color:#000000;fill:#000000;stroke-width:0;stroke-dasharray:none;stroke:none"
       d="m 0,0 v 100 c 0,21.97292 18.027078,40 40,40 h 60 c 21.97292,0 40,-18.02708 40,-40 V 50 C 140,33.549917 126.45008,20 110,20 102.3152,20 95.333188,23.036801 90,27.865234 84.666812,23.036801 77.684801,20 70,20 53.54992,20 40,33.54992 40,50 v 50 H 60 V 50 c 0,-5.641288 4.358712,-10 10,-10 5.641288,0 10,4.358712 10,10 v 50 h 20 V 50 c 0,-5.641288 4.35871,-10 10,-10 5.64128,0 10,4.358715 10,10 v 50 c 0,11.16413 -8.83587,20 -20,20 H 40 C 28.835871,120 20,111.16413 20,100 V 0 Z"
       id="Lm-path" />
  </g>
</svg>
