<?xml version="1.0" encoding="UTF-8" standalone="no"?>
<!-- Created with Inkscape (http://www.inkscape.org/) -->

<svg
   width="140"
   height="130"
   viewBox="0 0 140 130"
   id="svg2"
   version="1.1"
   xmlns="http://www.w3.org/2000/svg"
   xmlns:svg="http://www.w3.org/2000/svg">
  <defs
     id="defs4" />
  <g
     id="layer3">
    <path
       style="color:#000000;fill:#000000;fill-opacity:1;stroke:none;stroke-width:0;-inkscape-stroke:none"
       d="m 0,0 v 90 c 0,21.97292 18.02708,40 40,40 h 60 c 21.97292,0 40,-18.02708 40,-40 V 40 C 140,23.54992 126.45008,10 110,10 102.31506,10 95.33322,13.03762 90,17.86622 84.66678,13.03762 77.68494,10 70,10 53.54992,10 40,23.54992 40,40 V 90 H 60 V 40 c 0,-5.64128 4.35872,-10 10,-10 5.64128,0 10,4.35872 10,10 v 50 h 20 V 40 c 0,-5.64128 4.35872,-10 10,-10 5.64128,0 10,4.35872 10,10 v 50 c 0,11.16414 -8.83586,20 -20,20 H 40 C 28.83586,110 20,101.16414 20,90 V 0 Z"
       id="path4193" />
  </g>
</svg>
